%
M48
M72
T01C0.02362
T02C0.02756
T03C0.03150
T04C0.03200
T05C0.04000
T06C0.07480
%
T01
X21800Y91800
X26800Y111800
X49300Y160800
X101800Y106800
X106800Y94300
X151800Y106800
T02
X81800Y171800
X81800Y161800
X66800Y71800
X66800Y61800
X66800Y51800
X136800Y56800
X136800Y66800
T03
X19800Y160800
X26800Y160800
X33500Y160800
X30400Y167000
X23500Y167000
X131800Y186800
X151800Y186800
X166800Y186800
X186800Y186800
T04
X76800Y186800
X86800Y186800
X96800Y171800
X96800Y161800
X111800Y161800
X111800Y176800
X111800Y186800
X116800Y146800
X116800Y136800
X116800Y126800
X116800Y116800
X116800Y106800
X116800Y96800
X116800Y86800
X116800Y76800
X116800Y66800
X116800Y56800
X116800Y46800
X116800Y36800
X116800Y26800
X116800Y16800
X86800Y16800
X86800Y26800
X86800Y36800
X86800Y46800
X86800Y56800
X86800Y66800
X86800Y76800
X86800Y86800
X86800Y96800
X86800Y106800
X86800Y116800
X86800Y126800
X86800Y136800
X86800Y146800
X131800Y146800
X131800Y136800
X151800Y161800
X171800Y166800
X186800Y166800
X186800Y126800
X171800Y126800
X151800Y91800
X151800Y81800
X151800Y66800
X166800Y46800
X166800Y36800
X166800Y26800
X151800Y26800
X166800Y86800
X71800Y26800
X61800Y26800
T05
X6800Y11800
X6800Y21800
X6800Y31800
X6800Y41800
X6800Y61800
X6800Y71800
X6800Y81800
X6800Y91800
X6800Y111800
X6800Y121800
X6800Y131800
X6800Y141800
X61800Y161800
X61800Y171800
X61800Y181800
X191800Y91800
X191800Y81800
X191800Y71800
X191800Y61800
X191800Y41800
X191800Y31800
X191800Y21800
X191800Y11800
X71800Y11800
X61800Y11800
X51800Y11800
X41800Y11800
X31800Y11800
T06
X12430Y181800
X41170Y181800
M30
