G75*
%MOIN*%
%OFA0B0*%
%FSLAX25Y25*%
%IPPOS*%
%LPD*%
%AMOC8*
5,1,8,0,0,1.08239X$1,22.5*
%
%ADD10C,0.00000*%
%ADD11R,0.07400X0.07400*%
%ADD12C,0.07400*%
%ADD13OC8,0.05200*%
%ADD14C,0.05200*%
%ADD15C,0.06600*%
%ADD16C,0.06000*%
%ADD17R,0.06500X0.06500*%
%ADD18C,0.06500*%
%ADD19C,0.05150*%
%ADD20C,0.11220*%
%ADD21C,0.01600*%
%ADD22C,0.03562*%
D10*
X0001800Y0001800D02*
X0001800Y0198650D01*
X0198650Y0198650D01*
X0198650Y0001800D01*
X0001800Y0001800D01*
D11*
X0006800Y0041800D03*
X0006800Y0091800D03*
X0006800Y0141800D03*
X0071800Y0011800D03*
X0191800Y0041800D03*
X0191800Y0091800D03*
D12*
X0191800Y0081800D03*
X0191800Y0071800D03*
X0191800Y0061800D03*
X0191800Y0031800D03*
X0191800Y0021800D03*
X0191800Y0011800D03*
X0061800Y0011800D03*
X0051800Y0011800D03*
X0041800Y0011800D03*
X0031800Y0011800D03*
X0006800Y0011800D03*
X0006800Y0021800D03*
X0006800Y0031800D03*
X0006800Y0061800D03*
X0006800Y0071800D03*
X0006800Y0081800D03*
X0006800Y0111800D03*
X0006800Y0121800D03*
X0006800Y0131800D03*
D13*
X0076800Y0186800D03*
X0086800Y0186800D03*
X0096800Y0171800D03*
X0096800Y0161800D03*
X0111800Y0161800D03*
X0111800Y0176800D03*
X0111800Y0186800D03*
X0131800Y0146800D03*
X0131800Y0136800D03*
X0151800Y0161800D03*
X0171800Y0166800D03*
X0186800Y0166800D03*
X0186800Y0126800D03*
X0171800Y0126800D03*
X0151800Y0091800D03*
X0151800Y0081800D03*
X0151800Y0066800D03*
X0166800Y0046800D03*
X0166800Y0036800D03*
X0166800Y0026800D03*
X0151800Y0026800D03*
X0166800Y0086800D03*
X0071800Y0026800D03*
X0061800Y0026800D03*
D14*
X0084200Y0026800D02*
X0089400Y0026800D01*
X0089400Y0016800D02*
X0084200Y0016800D01*
X0084200Y0036800D02*
X0089400Y0036800D01*
X0089400Y0046800D02*
X0084200Y0046800D01*
X0084200Y0056800D02*
X0089400Y0056800D01*
X0089400Y0066800D02*
X0084200Y0066800D01*
X0084200Y0076800D02*
X0089400Y0076800D01*
X0089400Y0086800D02*
X0084200Y0086800D01*
X0084200Y0096800D02*
X0089400Y0096800D01*
X0089400Y0106800D02*
X0084200Y0106800D01*
X0084200Y0116800D02*
X0089400Y0116800D01*
X0089400Y0126800D02*
X0084200Y0126800D01*
X0084200Y0136800D02*
X0089400Y0136800D01*
X0089400Y0146800D02*
X0084200Y0146800D01*
X0114200Y0146800D02*
X0119400Y0146800D01*
X0119400Y0136800D02*
X0114200Y0136800D01*
X0114200Y0126800D02*
X0119400Y0126800D01*
X0119400Y0116800D02*
X0114200Y0116800D01*
X0114200Y0106800D02*
X0119400Y0106800D01*
X0119400Y0096800D02*
X0114200Y0096800D01*
X0114200Y0086800D02*
X0119400Y0086800D01*
X0119400Y0076800D02*
X0114200Y0076800D01*
X0114200Y0066800D02*
X0119400Y0066800D01*
X0119400Y0056800D02*
X0114200Y0056800D01*
X0114200Y0046800D02*
X0119400Y0046800D01*
X0119400Y0036800D02*
X0114200Y0036800D01*
X0114200Y0026800D02*
X0119400Y0026800D01*
X0119400Y0016800D02*
X0114200Y0016800D01*
D15*
X0066800Y0051800D03*
X0066800Y0061800D03*
X0066800Y0071800D03*
X0131800Y0186800D03*
X0151800Y0186800D03*
X0166800Y0186800D03*
X0186800Y0186800D03*
D16*
X0064800Y0181800D02*
X0058800Y0181800D01*
X0058800Y0171800D02*
X0064800Y0171800D01*
X0064800Y0161800D02*
X0058800Y0161800D01*
D17*
X0081800Y0171800D03*
X0136800Y0066800D03*
D18*
X0136800Y0056800D03*
X0081800Y0161800D03*
D19*
X0033500Y0160800D03*
X0026800Y0160800D03*
X0019800Y0160800D03*
X0023500Y0167000D03*
X0030400Y0167000D03*
D20*
X0041170Y0181800D03*
X0012430Y0181800D03*
D21*
X0033500Y0160800D02*
X0049300Y0160800D01*
X0048300Y0160800D01*
X0049300Y0161800D01*
X0049300Y0174300D01*
X0056800Y0181800D01*
X0061800Y0181800D01*
X0066800Y0186800D01*
X0076800Y0186800D01*
X0081800Y0171800D02*
X0061800Y0171800D01*
X0081800Y0171800D02*
X0096800Y0171800D01*
X0101800Y0171800D01*
X0111800Y0161800D01*
X0116800Y0156800D01*
X0116800Y0146800D01*
X0109300Y0146800D01*
X0104300Y0141800D01*
X0096800Y0141800D01*
X0096800Y0114300D01*
X0106800Y0114300D01*
X0109300Y0111800D01*
X0109300Y0101800D01*
X0114300Y0096800D01*
X0116800Y0096800D01*
X0116800Y0106800D02*
X0151800Y0106800D01*
X0156800Y0106800D01*
X0169300Y0094300D01*
X0174300Y0094300D01*
X0179300Y0089300D01*
X0179300Y0076800D01*
X0184300Y0071800D01*
X0191800Y0071800D01*
X0191800Y0061800D02*
X0164300Y0061800D01*
X0149300Y0046800D01*
X0116800Y0046800D01*
X0116800Y0036800D02*
X0146800Y0036800D01*
X0164300Y0054300D01*
X0184300Y0054300D01*
X0191800Y0041800D01*
X0191800Y0031800D02*
X0176800Y0016800D01*
X0161800Y0016800D01*
X0151800Y0026800D01*
X0116800Y0026800D01*
X0116800Y0016800D02*
X0106800Y0021800D01*
X0106800Y0094300D01*
X0101800Y0106800D02*
X0101800Y0009300D01*
X0096800Y0004300D01*
X0079300Y0004300D01*
X0071800Y0011800D01*
X0084300Y0019300D02*
X0086800Y0016800D01*
X0084300Y0019300D02*
X0034300Y0019300D01*
X0021800Y0031800D01*
X0006800Y0031800D01*
X0006800Y0041800D02*
X0021800Y0041800D01*
X0026800Y0036800D01*
X0086800Y0036800D01*
X0084300Y0044300D02*
X0086800Y0046800D01*
X0084300Y0044300D02*
X0054300Y0044300D01*
X0036800Y0061800D01*
X0006800Y0061800D01*
X0006800Y0071800D02*
X0031800Y0071800D01*
X0046800Y0086800D01*
X0086800Y0086800D01*
X0086800Y0096800D02*
X0041800Y0096800D01*
X0026800Y0081800D01*
X0006800Y0081800D01*
X0006800Y0091800D02*
X0021800Y0091800D01*
X0036800Y0106800D01*
X0086800Y0106800D01*
X0086800Y0116800D02*
X0031800Y0116800D01*
X0026800Y0111800D01*
X0006800Y0111800D01*
X0006800Y0121800D02*
X0026800Y0121800D01*
X0031800Y0126800D01*
X0086800Y0126800D01*
X0086800Y0136800D02*
X0031800Y0136800D01*
X0026800Y0131800D01*
X0006800Y0131800D01*
X0006800Y0141800D02*
X0026800Y0141800D01*
X0031800Y0146800D01*
X0086800Y0146800D01*
X0116800Y0146800D02*
X0131800Y0146800D01*
X0151800Y0146800D01*
X0171800Y0126800D01*
X0186800Y0126800D01*
X0181800Y0109300D02*
X0176800Y0109300D01*
X0159300Y0126800D01*
X0116800Y0126800D01*
X0116800Y0116800D02*
X0156800Y0116800D01*
X0174300Y0099300D01*
X0181800Y0099300D01*
X0184300Y0096800D01*
X0184300Y0089300D01*
X0191800Y0081800D01*
X0191800Y0091800D02*
X0191800Y0099300D01*
X0181800Y0109300D01*
X0151800Y0081800D02*
X0151800Y0066800D01*
X0136800Y0066800D02*
X0116800Y0066800D01*
X0086800Y0066800D02*
X0076800Y0066800D01*
X0071800Y0071800D01*
X0066800Y0071800D01*
X0076800Y0056800D02*
X0071800Y0051800D01*
X0066800Y0051800D01*
X0076800Y0056800D02*
X0086800Y0056800D01*
X0096800Y0031800D02*
X0096800Y0114300D01*
X0126800Y0161800D02*
X0111800Y0176800D01*
X0126800Y0161800D02*
X0151800Y0161800D01*
X0161800Y0166800D02*
X0151800Y0176800D01*
X0151800Y0186800D01*
X0161800Y0166800D02*
X0171800Y0166800D01*
X0186800Y0166800D02*
X0186800Y0186800D01*
X0166800Y0046800D02*
X0166800Y0036800D01*
X0191800Y0011800D02*
X0126800Y0011800D01*
X0121800Y0016800D01*
X0116800Y0016800D01*
X0096800Y0031800D02*
X0091800Y0026800D01*
X0086800Y0026800D01*
X0071800Y0026800D01*
D22*
X0021800Y0091800D03*
X0026800Y0111800D03*
X0049300Y0160800D03*
X0101800Y0106800D03*
X0106800Y0094300D03*
X0151800Y0106800D03*
M02*
