G75*
%MOIN*%
%OFA0B0*%
%FSLAX25Y25*%
%IPPOS*%
%LPD*%
%AMOC8*
5,1,8,0,0,1.08239X$1,22.5*
%
%ADD10C,0.00000*%
%ADD11R,0.07400X0.07400*%
%ADD12C,0.07400*%
%ADD13OC8,0.05200*%
%ADD14C,0.05200*%
%ADD15C,0.06600*%
%ADD16C,0.06000*%
%ADD17R,0.06500X0.06500*%
%ADD18C,0.06500*%
%ADD19C,0.05150*%
%ADD20C,0.11220*%
%ADD21C,0.01600*%
%ADD22C,0.03562*%
D10*
X0001800Y0001800D02*
X0001800Y0198650D01*
X0198650Y0198650D01*
X0198650Y0001800D01*
X0001800Y0001800D01*
D11*
X0006800Y0041800D03*
X0006800Y0091800D03*
X0006800Y0141800D03*
X0071800Y0011800D03*
X0191800Y0041800D03*
X0191800Y0091800D03*
D12*
X0191800Y0081800D03*
X0191800Y0071800D03*
X0191800Y0061800D03*
X0191800Y0031800D03*
X0191800Y0021800D03*
X0191800Y0011800D03*
X0061800Y0011800D03*
X0051800Y0011800D03*
X0041800Y0011800D03*
X0031800Y0011800D03*
X0006800Y0011800D03*
X0006800Y0021800D03*
X0006800Y0031800D03*
X0006800Y0061800D03*
X0006800Y0071800D03*
X0006800Y0081800D03*
X0006800Y0111800D03*
X0006800Y0121800D03*
X0006800Y0131800D03*
D13*
X0076800Y0186800D03*
X0086800Y0186800D03*
X0096800Y0171800D03*
X0096800Y0161800D03*
X0111800Y0161800D03*
X0111800Y0176800D03*
X0111800Y0186800D03*
X0131800Y0146800D03*
X0131800Y0136800D03*
X0151800Y0161800D03*
X0171800Y0166800D03*
X0186800Y0166800D03*
X0186800Y0126800D03*
X0171800Y0126800D03*
X0151800Y0091800D03*
X0151800Y0081800D03*
X0151800Y0066800D03*
X0166800Y0046800D03*
X0166800Y0036800D03*
X0166800Y0026800D03*
X0151800Y0026800D03*
X0166800Y0086800D03*
X0071800Y0026800D03*
X0061800Y0026800D03*
D14*
X0084200Y0026800D02*
X0089400Y0026800D01*
X0089400Y0016800D02*
X0084200Y0016800D01*
X0084200Y0036800D02*
X0089400Y0036800D01*
X0089400Y0046800D02*
X0084200Y0046800D01*
X0084200Y0056800D02*
X0089400Y0056800D01*
X0089400Y0066800D02*
X0084200Y0066800D01*
X0084200Y0076800D02*
X0089400Y0076800D01*
X0089400Y0086800D02*
X0084200Y0086800D01*
X0084200Y0096800D02*
X0089400Y0096800D01*
X0089400Y0106800D02*
X0084200Y0106800D01*
X0084200Y0116800D02*
X0089400Y0116800D01*
X0089400Y0126800D02*
X0084200Y0126800D01*
X0084200Y0136800D02*
X0089400Y0136800D01*
X0089400Y0146800D02*
X0084200Y0146800D01*
X0114200Y0146800D02*
X0119400Y0146800D01*
X0119400Y0136800D02*
X0114200Y0136800D01*
X0114200Y0126800D02*
X0119400Y0126800D01*
X0119400Y0116800D02*
X0114200Y0116800D01*
X0114200Y0106800D02*
X0119400Y0106800D01*
X0119400Y0096800D02*
X0114200Y0096800D01*
X0114200Y0086800D02*
X0119400Y0086800D01*
X0119400Y0076800D02*
X0114200Y0076800D01*
X0114200Y0066800D02*
X0119400Y0066800D01*
X0119400Y0056800D02*
X0114200Y0056800D01*
X0114200Y0046800D02*
X0119400Y0046800D01*
X0119400Y0036800D02*
X0114200Y0036800D01*
X0114200Y0026800D02*
X0119400Y0026800D01*
X0119400Y0016800D02*
X0114200Y0016800D01*
D15*
X0066800Y0051800D03*
X0066800Y0061800D03*
X0066800Y0071800D03*
X0131800Y0186800D03*
X0151800Y0186800D03*
X0166800Y0186800D03*
X0186800Y0186800D03*
D16*
X0064800Y0181800D02*
X0058800Y0181800D01*
X0058800Y0171800D02*
X0064800Y0171800D01*
X0064800Y0161800D02*
X0058800Y0161800D01*
D17*
X0081800Y0171800D03*
X0136800Y0066800D03*
D18*
X0136800Y0056800D03*
X0081800Y0161800D03*
D19*
X0033500Y0160800D03*
X0026800Y0160800D03*
X0019800Y0160800D03*
X0023500Y0167000D03*
X0030400Y0167000D03*
D20*
X0041170Y0181800D03*
X0012430Y0181800D03*
D21*
X0018562Y0176038D02*
X0035038Y0176038D01*
X0034040Y0177036D02*
X0036406Y0174670D01*
X0039497Y0173390D01*
X0042843Y0173390D01*
X0045934Y0174670D01*
X0048300Y0177036D01*
X0049580Y0180127D01*
X0049580Y0183473D01*
X0048300Y0186564D01*
X0045934Y0188930D01*
X0042843Y0190210D01*
X0039497Y0190210D01*
X0036406Y0188930D01*
X0034040Y0186564D01*
X0032760Y0183473D01*
X0032760Y0180127D01*
X0034040Y0177036D01*
X0033792Y0177636D02*
X0019808Y0177636D01*
X0019560Y0177036D02*
X0020840Y0180127D01*
X0020840Y0183473D01*
X0019560Y0186564D01*
X0017194Y0188930D01*
X0014103Y0190210D01*
X0010757Y0190210D01*
X0007666Y0188930D01*
X0005300Y0186564D01*
X0004600Y0184874D01*
X0004600Y0195850D01*
X0195850Y0195850D01*
X0195850Y0098300D01*
X0187543Y0098300D01*
X0186514Y0097874D01*
X0185726Y0097086D01*
X0185300Y0096057D01*
X0185300Y0095400D01*
X0181084Y0095400D01*
X0179761Y0094852D01*
X0175309Y0090400D01*
X0170837Y0090400D01*
X0169037Y0092200D01*
X0164563Y0092200D01*
X0161400Y0089037D01*
X0161400Y0084563D01*
X0164563Y0081400D01*
X0169037Y0081400D01*
X0170837Y0083200D01*
X0177516Y0083200D01*
X0178839Y0083748D01*
X0179852Y0084761D01*
X0183291Y0088200D01*
X0185300Y0088200D01*
X0185300Y0087543D01*
X0185726Y0086514D01*
X0186514Y0085726D01*
X0186528Y0085720D01*
X0186290Y0085482D01*
X0185300Y0083093D01*
X0185300Y0080507D01*
X0186290Y0078118D01*
X0187608Y0076800D01*
X0186290Y0075482D01*
X0185300Y0073093D01*
X0185300Y0070507D01*
X0186290Y0068118D01*
X0187608Y0066800D01*
X0186290Y0065482D01*
X0185300Y0063093D01*
X0185300Y0060507D01*
X0186290Y0058118D01*
X0188118Y0056290D01*
X0190507Y0055300D01*
X0193093Y0055300D01*
X0195482Y0056290D01*
X0195850Y0056658D01*
X0195850Y0048300D01*
X0187543Y0048300D01*
X0186514Y0047874D01*
X0185726Y0047086D01*
X0185300Y0046057D01*
X0185300Y0037543D01*
X0185726Y0036514D01*
X0186514Y0035726D01*
X0186528Y0035720D01*
X0186290Y0035482D01*
X0185300Y0033093D01*
X0185300Y0030507D01*
X0186290Y0028118D01*
X0188118Y0026290D01*
X0188439Y0026157D01*
X0188217Y0025995D01*
X0187605Y0025383D01*
X0187096Y0024683D01*
X0186703Y0023911D01*
X0186435Y0023088D01*
X0186300Y0022233D01*
X0186300Y0022000D01*
X0191600Y0022000D01*
X0191600Y0021600D01*
X0186300Y0021600D01*
X0186300Y0021367D01*
X0186435Y0020512D01*
X0186703Y0019689D01*
X0187096Y0018917D01*
X0187605Y0018217D01*
X0188217Y0017605D01*
X0188439Y0017443D01*
X0188118Y0017310D01*
X0186290Y0015482D01*
X0185300Y0013093D01*
X0185300Y0010507D01*
X0186290Y0008118D01*
X0188118Y0006290D01*
X0190507Y0005300D01*
X0193093Y0005300D01*
X0195482Y0006290D01*
X0195850Y0006658D01*
X0195850Y0004600D01*
X0059691Y0004600D01*
X0060425Y0005334D01*
X0060507Y0005300D01*
X0063093Y0005300D01*
X0065482Y0006290D01*
X0065720Y0006528D01*
X0065726Y0006514D01*
X0066514Y0005726D01*
X0067543Y0005300D01*
X0076057Y0005300D01*
X0077086Y0005726D01*
X0077874Y0006514D01*
X0078300Y0007543D01*
X0078300Y0016057D01*
X0077874Y0017086D01*
X0077086Y0017874D01*
X0076057Y0018300D01*
X0068391Y0018300D01*
X0071491Y0021400D01*
X0074037Y0021400D01*
X0077200Y0024563D01*
X0077200Y0029037D01*
X0074037Y0032200D01*
X0069563Y0032200D01*
X0066400Y0029037D01*
X0066400Y0026491D01*
X0066200Y0026291D01*
X0066200Y0026800D01*
X0066200Y0028623D01*
X0063623Y0031200D01*
X0061800Y0031200D01*
X0061800Y0026800D01*
X0061800Y0026800D01*
X0066200Y0026800D01*
X0061800Y0026800D01*
X0061800Y0026800D01*
X0061800Y0022400D01*
X0062309Y0022400D01*
X0059761Y0019852D01*
X0058748Y0018839D01*
X0058200Y0017516D01*
X0058200Y0017344D01*
X0058118Y0017310D01*
X0056290Y0015482D01*
X0056157Y0015161D01*
X0055995Y0015383D01*
X0055383Y0015995D01*
X0054683Y0016504D01*
X0053911Y0016897D01*
X0053088Y0017165D01*
X0052233Y0017300D01*
X0052000Y0017300D01*
X0052000Y0012000D01*
X0051600Y0012000D01*
X0051600Y0017300D01*
X0051367Y0017300D01*
X0050512Y0017165D01*
X0049689Y0016897D01*
X0048917Y0016504D01*
X0048217Y0015995D01*
X0047605Y0015383D01*
X0047443Y0015161D01*
X0047310Y0015482D01*
X0045482Y0017310D01*
X0045400Y0017344D01*
X0045400Y0097516D01*
X0044852Y0098839D01*
X0031381Y0112310D01*
X0031381Y0112711D01*
X0030684Y0114395D01*
X0029395Y0115684D01*
X0027711Y0116381D01*
X0025889Y0116381D01*
X0024205Y0115684D01*
X0022916Y0114395D01*
X0022219Y0112711D01*
X0022219Y0110889D01*
X0022916Y0109205D01*
X0024205Y0107916D01*
X0025889Y0107219D01*
X0026290Y0107219D01*
X0038200Y0095309D01*
X0038200Y0017344D01*
X0038118Y0017310D01*
X0036800Y0015992D01*
X0035482Y0017310D01*
X0035400Y0017344D01*
X0035400Y0082516D01*
X0034852Y0083839D01*
X0026381Y0092310D01*
X0026381Y0092711D01*
X0025684Y0094395D01*
X0024395Y0095684D01*
X0022711Y0096381D01*
X0020889Y0096381D01*
X0019205Y0095684D01*
X0017916Y0094395D01*
X0017219Y0092711D01*
X0017219Y0090889D01*
X0017916Y0089205D01*
X0019205Y0087916D01*
X0020889Y0087219D01*
X0021290Y0087219D01*
X0028200Y0080309D01*
X0028200Y0017344D01*
X0028118Y0017310D01*
X0026290Y0015482D01*
X0025300Y0013093D01*
X0025300Y0010507D01*
X0026290Y0008118D01*
X0026508Y0007900D01*
X0015791Y0007900D01*
X0013266Y0010425D01*
X0013300Y0010507D01*
X0013300Y0013093D01*
X0012310Y0015482D01*
X0010482Y0017310D01*
X0010161Y0017443D01*
X0010383Y0017605D01*
X0010995Y0018217D01*
X0011504Y0018917D01*
X0011897Y0019689D01*
X0012165Y0020512D01*
X0012300Y0021367D01*
X0012300Y0021600D01*
X0007000Y0021600D01*
X0007000Y0022000D01*
X0012300Y0022000D01*
X0012300Y0022233D01*
X0012165Y0023088D01*
X0011897Y0023911D01*
X0011504Y0024683D01*
X0010995Y0025383D01*
X0010383Y0025995D01*
X0010161Y0026157D01*
X0010482Y0026290D01*
X0012310Y0028118D01*
X0013300Y0030507D01*
X0013300Y0033093D01*
X0012310Y0035482D01*
X0012072Y0035720D01*
X0012086Y0035726D01*
X0012874Y0036514D01*
X0013300Y0037543D01*
X0013300Y0046057D01*
X0012874Y0047086D01*
X0012086Y0047874D01*
X0011057Y0048300D01*
X0004600Y0048300D01*
X0004600Y0055676D01*
X0005507Y0055300D01*
X0008093Y0055300D01*
X0010482Y0056290D01*
X0012310Y0058118D01*
X0013300Y0060507D01*
X0013300Y0063093D01*
X0012310Y0065482D01*
X0010992Y0066800D01*
X0012310Y0068118D01*
X0013300Y0070507D01*
X0013300Y0073093D01*
X0012310Y0075482D01*
X0010992Y0076800D01*
X0012310Y0078118D01*
X0013300Y0080507D01*
X0013300Y0083093D01*
X0012310Y0085482D01*
X0012072Y0085720D01*
X0012086Y0085726D01*
X0012874Y0086514D01*
X0013300Y0087543D01*
X0013300Y0096057D01*
X0012874Y0097086D01*
X0012086Y0097874D01*
X0011057Y0098300D01*
X0004600Y0098300D01*
X0004600Y0105676D01*
X0005507Y0105300D01*
X0008093Y0105300D01*
X0010482Y0106290D01*
X0012310Y0108118D01*
X0013300Y0110507D01*
X0013300Y0113093D01*
X0012310Y0115482D01*
X0010992Y0116800D01*
X0012310Y0118118D01*
X0013300Y0120507D01*
X0013300Y0123093D01*
X0012310Y0125482D01*
X0010992Y0126800D01*
X0012310Y0128118D01*
X0013300Y0130507D01*
X0013300Y0133093D01*
X0012310Y0135482D01*
X0012072Y0135720D01*
X0012086Y0135726D01*
X0012874Y0136514D01*
X0013300Y0137543D01*
X0013300Y0146057D01*
X0012874Y0147086D01*
X0012086Y0147874D01*
X0011057Y0148300D01*
X0004600Y0148300D01*
X0004600Y0178726D01*
X0005300Y0177036D01*
X0007666Y0174670D01*
X0010757Y0173390D01*
X0014103Y0173390D01*
X0017194Y0174670D01*
X0019560Y0177036D01*
X0020471Y0179235D02*
X0033129Y0179235D01*
X0032760Y0180833D02*
X0020840Y0180833D01*
X0020840Y0182432D02*
X0032760Y0182432D01*
X0032991Y0184030D02*
X0020609Y0184030D01*
X0019947Y0185629D02*
X0033653Y0185629D01*
X0034704Y0187227D02*
X0018896Y0187227D01*
X0017298Y0188826D02*
X0036302Y0188826D01*
X0046038Y0188826D02*
X0071400Y0188826D01*
X0071400Y0189037D02*
X0071400Y0184563D01*
X0074563Y0181400D01*
X0079037Y0181400D01*
X0082200Y0184563D01*
X0082200Y0189037D01*
X0079037Y0192200D01*
X0074563Y0192200D01*
X0071400Y0189037D01*
X0071400Y0187227D02*
X0066853Y0187227D01*
X0065954Y0187600D02*
X0068085Y0186717D01*
X0069717Y0185085D01*
X0070600Y0182954D01*
X0070600Y0180646D01*
X0069717Y0178515D01*
X0068085Y0176883D01*
X0067885Y0176800D01*
X0068085Y0176717D01*
X0069717Y0175085D01*
X0070600Y0172954D01*
X0070600Y0170646D01*
X0069717Y0168515D01*
X0068085Y0166883D01*
X0066592Y0166265D01*
X0066643Y0166248D01*
X0067316Y0165905D01*
X0067927Y0165461D01*
X0068461Y0164927D01*
X0068905Y0164316D01*
X0069248Y0163643D01*
X0069482Y0162924D01*
X0069600Y0162178D01*
X0069600Y0162000D01*
X0062000Y0162000D01*
X0062000Y0161600D01*
X0069600Y0161600D01*
X0069600Y0161422D01*
X0069482Y0160676D01*
X0069248Y0159957D01*
X0068905Y0159284D01*
X0068461Y0158673D01*
X0067927Y0158139D01*
X0067316Y0157695D01*
X0066643Y0157352D01*
X0065924Y0157118D01*
X0065178Y0157000D01*
X0062000Y0157000D01*
X0062000Y0161600D01*
X0061600Y0161600D01*
X0061600Y0157000D01*
X0058422Y0157000D01*
X0057676Y0157118D01*
X0056957Y0157352D01*
X0056284Y0157695D01*
X0055673Y0158139D01*
X0055139Y0158673D01*
X0054695Y0159284D01*
X0054352Y0159957D01*
X0054118Y0160676D01*
X0054000Y0161422D01*
X0054000Y0161600D01*
X0061600Y0161600D01*
X0061600Y0162000D01*
X0054000Y0162000D01*
X0054000Y0162178D01*
X0054118Y0162924D01*
X0054352Y0163643D01*
X0054695Y0164316D01*
X0055139Y0164927D01*
X0055673Y0165461D01*
X0056284Y0165905D01*
X0056957Y0166248D01*
X0057008Y0166265D01*
X0055515Y0166883D01*
X0053883Y0168515D01*
X0053000Y0170646D01*
X0053000Y0172954D01*
X0053883Y0175085D01*
X0055515Y0176717D01*
X0055715Y0176800D01*
X0055515Y0176883D01*
X0053883Y0178515D01*
X0053000Y0180646D01*
X0053000Y0182954D01*
X0053883Y0185085D01*
X0055515Y0186717D01*
X0057646Y0187600D01*
X0065954Y0187600D01*
X0069174Y0185629D02*
X0071400Y0185629D01*
X0071933Y0184030D02*
X0070154Y0184030D01*
X0070600Y0182432D02*
X0073531Y0182432D01*
X0070600Y0180833D02*
X0108197Y0180833D01*
X0109563Y0182200D02*
X0106400Y0179037D01*
X0106400Y0174563D01*
X0109563Y0171400D01*
X0114037Y0171400D01*
X0117200Y0174563D01*
X0117200Y0179037D01*
X0114037Y0182200D01*
X0109563Y0182200D01*
X0109946Y0182432D02*
X0088654Y0182432D01*
X0088623Y0182400D02*
X0091200Y0184977D01*
X0091200Y0186800D01*
X0091200Y0188623D01*
X0088623Y0191200D01*
X0086800Y0191200D01*
X0086800Y0186800D01*
X0091200Y0186800D01*
X0086800Y0186800D01*
X0086800Y0186800D01*
X0086800Y0186800D01*
X0086800Y0182400D01*
X0088623Y0182400D01*
X0086800Y0182400D02*
X0086800Y0186800D01*
X0086800Y0186800D01*
X0086800Y0186800D01*
X0082400Y0186800D01*
X0082400Y0188623D01*
X0084977Y0191200D01*
X0086800Y0191200D01*
X0086800Y0186800D01*
X0082400Y0186800D01*
X0082400Y0184977D01*
X0084977Y0182400D01*
X0086800Y0182400D01*
X0086800Y0182432D02*
X0086800Y0182432D01*
X0086800Y0184030D02*
X0086800Y0184030D01*
X0086800Y0185629D02*
X0086800Y0185629D01*
X0086800Y0187227D02*
X0086800Y0187227D01*
X0086800Y0188826D02*
X0086800Y0188826D01*
X0086800Y0190424D02*
X0086800Y0190424D01*
X0089398Y0190424D02*
X0109202Y0190424D01*
X0109977Y0191200D02*
X0107400Y0188623D01*
X0107400Y0186800D01*
X0111800Y0186800D01*
X0111800Y0186800D01*
X0111800Y0191200D01*
X0113623Y0191200D01*
X0116200Y0188623D01*
X0116200Y0186800D01*
X0111800Y0186800D01*
X0111800Y0186800D01*
X0111800Y0186800D01*
X0111800Y0191200D01*
X0109977Y0191200D01*
X0111800Y0190424D02*
X0111800Y0190424D01*
X0111800Y0188826D02*
X0111800Y0188826D01*
X0111800Y0187227D02*
X0111800Y0187227D01*
X0111800Y0186800D02*
X0107400Y0186800D01*
X0107400Y0184977D01*
X0109977Y0182400D01*
X0111800Y0182400D01*
X0113623Y0182400D01*
X0116200Y0184977D01*
X0116200Y0186800D01*
X0111800Y0186800D01*
X0111800Y0182400D01*
X0111800Y0186800D01*
X0111800Y0186800D01*
X0111800Y0185629D02*
X0111800Y0185629D01*
X0111800Y0184030D02*
X0111800Y0184030D01*
X0111800Y0182432D02*
X0111800Y0182432D01*
X0113654Y0182432D02*
X0129139Y0182432D01*
X0129127Y0182438D02*
X0129842Y0182074D01*
X0130606Y0181826D01*
X0131399Y0181700D01*
X0131800Y0181700D01*
X0132201Y0181700D01*
X0132994Y0181826D01*
X0133758Y0182074D01*
X0134473Y0182438D01*
X0135122Y0182910D01*
X0135690Y0183478D01*
X0136162Y0184127D01*
X0136526Y0184842D01*
X0136774Y0185606D01*
X0136900Y0186399D01*
X0136900Y0186800D01*
X0136900Y0187201D01*
X0136774Y0187994D01*
X0136526Y0188758D01*
X0136162Y0189473D01*
X0135690Y0190122D01*
X0135122Y0190690D01*
X0134473Y0191162D01*
X0133758Y0191526D01*
X0132994Y0191774D01*
X0132201Y0191900D01*
X0131800Y0191900D01*
X0131800Y0186800D01*
X0136900Y0186800D01*
X0131800Y0186800D01*
X0131800Y0186800D01*
X0131800Y0186800D01*
X0131800Y0181700D01*
X0131800Y0186800D01*
X0131800Y0186800D01*
X0131800Y0186800D01*
X0126700Y0186800D01*
X0126700Y0187201D01*
X0126826Y0187994D01*
X0127074Y0188758D01*
X0127438Y0189473D01*
X0127910Y0190122D01*
X0128478Y0190690D01*
X0129127Y0191162D01*
X0129842Y0191526D01*
X0130606Y0191774D01*
X0131399Y0191900D01*
X0131800Y0191900D01*
X0131800Y0186800D01*
X0126700Y0186800D01*
X0126700Y0186399D01*
X0126826Y0185606D01*
X0127074Y0184842D01*
X0127438Y0184127D01*
X0127910Y0183478D01*
X0128478Y0182910D01*
X0129127Y0182438D01*
X0127508Y0184030D02*
X0115253Y0184030D01*
X0116200Y0185629D02*
X0126822Y0185629D01*
X0126704Y0187227D02*
X0116200Y0187227D01*
X0115997Y0188826D02*
X0127108Y0188826D01*
X0128212Y0190424D02*
X0114398Y0190424D01*
X0107603Y0188826D02*
X0090997Y0188826D01*
X0091200Y0187227D02*
X0107400Y0187227D01*
X0107400Y0185629D02*
X0091200Y0185629D01*
X0090253Y0184030D02*
X0108347Y0184030D01*
X0106598Y0179235D02*
X0070015Y0179235D01*
X0068839Y0177636D02*
X0077477Y0177636D01*
X0076964Y0177424D02*
X0076176Y0176636D01*
X0075750Y0175607D01*
X0075750Y0167993D01*
X0076176Y0166964D01*
X0076964Y0166176D01*
X0077993Y0165750D01*
X0078645Y0165750D01*
X0078510Y0165652D01*
X0077948Y0165090D01*
X0077481Y0164447D01*
X0077120Y0163739D01*
X0076874Y0162983D01*
X0076750Y0162197D01*
X0076750Y0161800D01*
X0081800Y0161800D01*
X0086850Y0161800D01*
X0086850Y0162197D01*
X0086726Y0162983D01*
X0086480Y0163739D01*
X0086119Y0164447D01*
X0085652Y0165090D01*
X0085090Y0165652D01*
X0084955Y0165750D01*
X0085607Y0165750D01*
X0086636Y0166176D01*
X0087424Y0166964D01*
X0087850Y0167993D01*
X0087850Y0175607D01*
X0087424Y0176636D01*
X0086636Y0177424D01*
X0085607Y0177850D01*
X0077993Y0177850D01*
X0076964Y0177424D01*
X0075928Y0176038D02*
X0068765Y0176038D01*
X0069985Y0174439D02*
X0075750Y0174439D01*
X0075750Y0172841D02*
X0070600Y0172841D01*
X0070600Y0171242D02*
X0075750Y0171242D01*
X0075750Y0169644D02*
X0070185Y0169644D01*
X0069248Y0168045D02*
X0075750Y0168045D01*
X0076694Y0166447D02*
X0067032Y0166447D01*
X0068518Y0164848D02*
X0077772Y0164848D01*
X0076961Y0163250D02*
X0069376Y0163250D01*
X0069279Y0160053D02*
X0077058Y0160053D01*
X0077120Y0159861D02*
X0077481Y0159153D01*
X0077948Y0158510D01*
X0078510Y0157948D01*
X0079153Y0157481D01*
X0079861Y0157120D01*
X0080617Y0156874D01*
X0081403Y0156750D01*
X0081800Y0156750D01*
X0082197Y0156750D01*
X0082983Y0156874D01*
X0083739Y0157120D01*
X0084447Y0157481D01*
X0085090Y0157948D01*
X0085652Y0158510D01*
X0086119Y0159153D01*
X0086480Y0159861D01*
X0086726Y0160617D01*
X0086850Y0161403D01*
X0086850Y0161800D01*
X0081800Y0161800D01*
X0081800Y0161800D01*
X0081800Y0161800D01*
X0081800Y0156750D01*
X0081800Y0161800D01*
X0081800Y0161800D01*
X0076750Y0161800D01*
X0076750Y0161403D01*
X0076874Y0160617D01*
X0077120Y0159861D01*
X0078004Y0158454D02*
X0068242Y0158454D01*
X0062000Y0158454D02*
X0061600Y0158454D01*
X0061600Y0160053D02*
X0062000Y0160053D01*
X0062000Y0161651D02*
X0076750Y0161651D01*
X0081800Y0161651D02*
X0081800Y0161651D01*
X0081800Y0160053D02*
X0081800Y0160053D01*
X0081800Y0158454D02*
X0081800Y0158454D01*
X0081800Y0156856D02*
X0081800Y0156856D01*
X0082864Y0156856D02*
X0109108Y0156856D01*
X0109563Y0156400D02*
X0114037Y0156400D01*
X0117200Y0159563D01*
X0117200Y0164037D01*
X0114037Y0167200D01*
X0109563Y0167200D01*
X0106400Y0164037D01*
X0106400Y0159563D01*
X0109563Y0156400D01*
X0107509Y0158454D02*
X0099677Y0158454D01*
X0098623Y0157400D02*
X0101200Y0159977D01*
X0101200Y0161800D01*
X0101200Y0163623D01*
X0098623Y0166200D01*
X0096800Y0166200D01*
X0096800Y0161800D01*
X0096800Y0161800D01*
X0101200Y0161800D01*
X0096800Y0161800D01*
X0096800Y0161800D01*
X0096800Y0161800D01*
X0092400Y0161800D01*
X0092400Y0163623D01*
X0094977Y0166200D01*
X0096800Y0166200D01*
X0096800Y0161800D01*
X0096800Y0157400D01*
X0098623Y0157400D01*
X0096800Y0157400D02*
X0096800Y0161800D01*
X0096800Y0161800D01*
X0092400Y0161800D01*
X0092400Y0159977D01*
X0094977Y0157400D01*
X0096800Y0157400D01*
X0096800Y0158454D02*
X0096800Y0158454D01*
X0096800Y0160053D02*
X0096800Y0160053D01*
X0096800Y0161651D02*
X0096800Y0161651D01*
X0096800Y0163250D02*
X0096800Y0163250D01*
X0096800Y0164848D02*
X0096800Y0164848D01*
X0094563Y0166400D02*
X0099037Y0166400D01*
X0102200Y0169563D01*
X0102200Y0174037D01*
X0099037Y0177200D01*
X0094563Y0177200D01*
X0091400Y0174037D01*
X0091400Y0169563D01*
X0094563Y0166400D01*
X0094517Y0166447D02*
X0086906Y0166447D01*
X0087850Y0168045D02*
X0092918Y0168045D01*
X0091400Y0169644D02*
X0087850Y0169644D01*
X0087850Y0171242D02*
X0091400Y0171242D01*
X0091400Y0172841D02*
X0087850Y0172841D01*
X0087850Y0174439D02*
X0091802Y0174439D01*
X0093401Y0176038D02*
X0087672Y0176038D01*
X0086123Y0177636D02*
X0106400Y0177636D01*
X0106400Y0176038D02*
X0100199Y0176038D01*
X0101798Y0174439D02*
X0106524Y0174439D01*
X0108123Y0172841D02*
X0102200Y0172841D01*
X0102200Y0171242D02*
X0136151Y0171242D01*
X0134553Y0169644D02*
X0102200Y0169644D01*
X0100682Y0168045D02*
X0132954Y0168045D01*
X0131356Y0166447D02*
X0114790Y0166447D01*
X0116389Y0164848D02*
X0129757Y0164848D01*
X0128158Y0163250D02*
X0117200Y0163250D01*
X0117200Y0161651D02*
X0126560Y0161651D01*
X0124961Y0160053D02*
X0117200Y0160053D01*
X0116091Y0158454D02*
X0123363Y0158454D01*
X0121764Y0156856D02*
X0114492Y0156856D01*
X0120309Y0155400D02*
X0106084Y0155400D01*
X0104761Y0154852D01*
X0100309Y0150400D01*
X0093437Y0150400D01*
X0092459Y0151378D01*
X0090474Y0152200D01*
X0083126Y0152200D01*
X0081141Y0151378D01*
X0079622Y0149859D01*
X0078800Y0147874D01*
X0078800Y0145726D01*
X0079622Y0143741D01*
X0081141Y0142222D01*
X0082160Y0141800D01*
X0081141Y0141378D01*
X0079622Y0139859D01*
X0078800Y0137874D01*
X0078800Y0135726D01*
X0079622Y0133741D01*
X0081141Y0132222D01*
X0082160Y0131800D01*
X0081141Y0131378D01*
X0079622Y0129859D01*
X0078800Y0127874D01*
X0078800Y0125726D01*
X0079622Y0123741D01*
X0081141Y0122222D01*
X0082160Y0121800D01*
X0081141Y0121378D01*
X0079622Y0119859D01*
X0078800Y0117874D01*
X0078800Y0115726D01*
X0079622Y0113741D01*
X0081141Y0112222D01*
X0082160Y0111800D01*
X0081141Y0111378D01*
X0079622Y0109859D01*
X0078800Y0107874D01*
X0078800Y0105726D01*
X0078935Y0105400D01*
X0078291Y0105400D01*
X0052900Y0130791D01*
X0052900Y0157921D01*
X0053184Y0158205D01*
X0053881Y0159889D01*
X0053881Y0161711D01*
X0053184Y0163395D01*
X0051895Y0164684D01*
X0050211Y0165381D01*
X0048389Y0165381D01*
X0046705Y0164684D01*
X0045416Y0163395D01*
X0045226Y0162936D01*
X0044852Y0163839D01*
X0043839Y0164852D01*
X0038639Y0170052D01*
X0037316Y0170600D01*
X0034401Y0170600D01*
X0033445Y0171557D01*
X0031469Y0172375D01*
X0029331Y0172375D01*
X0027355Y0171557D01*
X0026950Y0171151D01*
X0026545Y0171557D01*
X0024569Y0172375D01*
X0022431Y0172375D01*
X0020455Y0171557D01*
X0018943Y0170045D01*
X0018125Y0168069D01*
X0018125Y0165931D01*
X0018518Y0164983D01*
X0018121Y0164854D01*
X0017507Y0164542D01*
X0016950Y0164137D01*
X0016463Y0163650D01*
X0016058Y0163093D01*
X0015746Y0162479D01*
X0015533Y0161824D01*
X0015425Y0161144D01*
X0015425Y0160800D01*
X0019800Y0160800D01*
X0019800Y0156425D01*
X0020144Y0156425D01*
X0020824Y0156533D01*
X0021479Y0156746D01*
X0022093Y0157058D01*
X0022584Y0157415D01*
X0023200Y0156799D01*
X0023200Y0126084D01*
X0023748Y0124761D01*
X0068748Y0079761D01*
X0069761Y0078748D01*
X0071084Y0078200D01*
X0080028Y0078200D01*
X0079908Y0077830D01*
X0079800Y0077146D01*
X0079800Y0076800D01*
X0086800Y0076800D01*
X0093800Y0076800D01*
X0093800Y0077146D01*
X0093788Y0077221D01*
X0096248Y0074761D01*
X0097261Y0073748D01*
X0098584Y0073200D01*
X0110163Y0073200D01*
X0111141Y0072222D01*
X0112160Y0071800D01*
X0111141Y0071378D01*
X0109622Y0069859D01*
X0108800Y0067874D01*
X0108800Y0065726D01*
X0109622Y0063741D01*
X0111141Y0062222D01*
X0113126Y0061400D01*
X0120474Y0061400D01*
X0122459Y0062222D01*
X0123978Y0063741D01*
X0124800Y0065726D01*
X0124800Y0067874D01*
X0123978Y0069859D01*
X0122459Y0071378D01*
X0121440Y0071800D01*
X0122459Y0072222D01*
X0123978Y0073741D01*
X0124800Y0075726D01*
X0124800Y0077874D01*
X0123978Y0079859D01*
X0122459Y0081378D01*
X0121440Y0081800D01*
X0122459Y0082222D01*
X0123978Y0083741D01*
X0124800Y0085726D01*
X0124800Y0087874D01*
X0123978Y0089859D01*
X0122459Y0091378D01*
X0121440Y0091800D01*
X0122459Y0092222D01*
X0123978Y0093741D01*
X0124800Y0095726D01*
X0124800Y0097874D01*
X0123978Y0099859D01*
X0122459Y0101378D01*
X0121440Y0101800D01*
X0122459Y0102222D01*
X0123978Y0103741D01*
X0124800Y0105726D01*
X0124800Y0107874D01*
X0123978Y0109859D01*
X0122459Y0111378D01*
X0121440Y0111800D01*
X0122459Y0112222D01*
X0123978Y0113741D01*
X0124800Y0115726D01*
X0124800Y0117874D01*
X0123978Y0119859D01*
X0122459Y0121378D01*
X0121440Y0121800D01*
X0122459Y0122222D01*
X0123978Y0123741D01*
X0124800Y0125726D01*
X0124800Y0127874D01*
X0123978Y0129859D01*
X0122459Y0131378D01*
X0120474Y0132200D01*
X0113126Y0132200D01*
X0111141Y0131378D01*
X0109622Y0129859D01*
X0108800Y0127874D01*
X0108800Y0125726D01*
X0109622Y0123741D01*
X0111141Y0122222D01*
X0112160Y0121800D01*
X0111141Y0121378D01*
X0109622Y0119859D01*
X0108800Y0117874D01*
X0108800Y0115726D01*
X0109622Y0113741D01*
X0111141Y0112222D01*
X0112160Y0111800D01*
X0111141Y0111378D01*
X0109622Y0109859D01*
X0108800Y0107874D01*
X0108800Y0105726D01*
X0109622Y0103741D01*
X0111141Y0102222D01*
X0112160Y0101800D01*
X0111141Y0101378D01*
X0109622Y0099859D01*
X0108997Y0098349D01*
X0107711Y0098881D01*
X0105889Y0098881D01*
X0104205Y0098184D01*
X0103921Y0097900D01*
X0103291Y0097900D01*
X0097352Y0103839D01*
X0096339Y0104852D01*
X0095016Y0105400D01*
X0094665Y0105400D01*
X0094800Y0105726D01*
X0094800Y0107874D01*
X0093978Y0109859D01*
X0092459Y0111378D01*
X0091440Y0111800D01*
X0092459Y0112222D01*
X0093978Y0113741D01*
X0094800Y0115726D01*
X0094800Y0117874D01*
X0093978Y0119859D01*
X0092459Y0121378D01*
X0091440Y0121800D01*
X0092459Y0122222D01*
X0093978Y0123741D01*
X0094800Y0125726D01*
X0094800Y0127874D01*
X0093978Y0129859D01*
X0092459Y0131378D01*
X0091440Y0131800D01*
X0092459Y0132222D01*
X0093978Y0133741D01*
X0094800Y0135726D01*
X0094800Y0137874D01*
X0093978Y0139859D01*
X0092459Y0141378D01*
X0091440Y0141800D01*
X0092459Y0142222D01*
X0093437Y0143200D01*
X0098200Y0143200D01*
X0098200Y0109679D01*
X0097916Y0109395D01*
X0097219Y0107711D01*
X0097219Y0105889D01*
X0097916Y0104205D01*
X0099205Y0102916D01*
X0100889Y0102219D01*
X0102711Y0102219D01*
X0104395Y0102916D01*
X0105684Y0104205D01*
X0106381Y0105889D01*
X0106381Y0107711D01*
X0105684Y0109395D01*
X0105400Y0109679D01*
X0105400Y0145309D01*
X0108291Y0148200D01*
X0108935Y0148200D01*
X0108800Y0147874D01*
X0108800Y0145726D01*
X0109622Y0143741D01*
X0111141Y0142222D01*
X0113126Y0141400D01*
X0120474Y0141400D01*
X0122459Y0142222D01*
X0123978Y0143741D01*
X0124800Y0145726D01*
X0124800Y0147874D01*
X0124263Y0149171D01*
X0124852Y0149761D01*
X0154852Y0179761D01*
X0155400Y0181084D01*
X0155400Y0181773D01*
X0156971Y0183345D01*
X0157900Y0185587D01*
X0157900Y0188013D01*
X0156971Y0190255D01*
X0155255Y0191971D01*
X0153013Y0192900D01*
X0150587Y0192900D01*
X0148345Y0191971D01*
X0146629Y0190255D01*
X0145700Y0188013D01*
X0145700Y0185587D01*
X0146629Y0183345D01*
X0147441Y0182532D01*
X0120309Y0155400D01*
X0121800Y0151800D02*
X0106800Y0151800D01*
X0101800Y0146800D01*
X0101800Y0106800D01*
X0097711Y0108900D02*
X0094375Y0108900D01*
X0094800Y0107302D02*
X0097219Y0107302D01*
X0097296Y0105703D02*
X0094791Y0105703D01*
X0097086Y0104105D02*
X0098017Y0104105D01*
X0098685Y0102506D02*
X0100195Y0102506D01*
X0100283Y0100908D02*
X0110671Y0100908D01*
X0110857Y0102506D02*
X0103405Y0102506D01*
X0105583Y0104105D02*
X0109471Y0104105D01*
X0108809Y0105703D02*
X0106304Y0105703D01*
X0106381Y0107302D02*
X0108800Y0107302D01*
X0109225Y0108900D02*
X0105889Y0108900D01*
X0105400Y0110499D02*
X0110262Y0110499D01*
X0111442Y0112097D02*
X0105400Y0112097D01*
X0105400Y0113696D02*
X0109667Y0113696D01*
X0108979Y0115294D02*
X0105400Y0115294D01*
X0105400Y0116893D02*
X0108800Y0116893D01*
X0109056Y0118491D02*
X0105400Y0118491D01*
X0105400Y0120090D02*
X0109853Y0120090D01*
X0111891Y0121688D02*
X0105400Y0121688D01*
X0105400Y0123287D02*
X0110076Y0123287D01*
X0109148Y0124885D02*
X0105400Y0124885D01*
X0105400Y0126484D02*
X0108800Y0126484D01*
X0108886Y0128082D02*
X0105400Y0128082D01*
X0105400Y0129681D02*
X0109548Y0129681D01*
X0111043Y0131279D02*
X0105400Y0131279D01*
X0105400Y0132878D02*
X0112206Y0132878D01*
X0112511Y0132722D02*
X0111894Y0133037D01*
X0111334Y0133444D01*
X0110844Y0133934D01*
X0110437Y0134494D01*
X0110122Y0135111D01*
X0109908Y0135770D01*
X0109800Y0136454D01*
X0109800Y0136800D01*
X0116800Y0136800D01*
X0116800Y0136800D01*
X0116800Y0141200D01*
X0119746Y0141200D01*
X0120430Y0141092D01*
X0121089Y0140878D01*
X0121706Y0140563D01*
X0122266Y0140156D01*
X0122756Y0139666D01*
X0123163Y0139106D01*
X0123478Y0138489D01*
X0123692Y0137830D01*
X0123800Y0137146D01*
X0123800Y0136800D01*
X0116800Y0136800D01*
X0116800Y0136800D01*
X0116800Y0132400D01*
X0119746Y0132400D01*
X0120430Y0132508D01*
X0121089Y0132722D01*
X0121706Y0133037D01*
X0122266Y0133444D01*
X0122756Y0133934D01*
X0123163Y0134494D01*
X0123478Y0135111D01*
X0123692Y0135770D01*
X0123800Y0136454D01*
X0123800Y0136800D01*
X0116800Y0136800D01*
X0116800Y0136800D01*
X0116800Y0136800D01*
X0116800Y0141200D01*
X0113854Y0141200D01*
X0113170Y0141092D01*
X0112511Y0140878D01*
X0111894Y0140563D01*
X0111334Y0140156D01*
X0110844Y0139666D01*
X0110437Y0139106D01*
X0110122Y0138489D01*
X0109908Y0137830D01*
X0109800Y0137146D01*
X0109800Y0136800D01*
X0116800Y0136800D01*
X0116800Y0132400D01*
X0113854Y0132400D01*
X0113170Y0132508D01*
X0112511Y0132722D01*
X0110449Y0134476D02*
X0105400Y0134476D01*
X0105400Y0136075D02*
X0109860Y0136075D01*
X0109884Y0137673D02*
X0105400Y0137673D01*
X0105400Y0139272D02*
X0110557Y0139272D01*
X0112497Y0140870D02*
X0105400Y0140870D01*
X0105400Y0142469D02*
X0110894Y0142469D01*
X0109487Y0144068D02*
X0105400Y0144068D01*
X0105757Y0145666D02*
X0108825Y0145666D01*
X0108800Y0147265D02*
X0107356Y0147265D01*
X0101800Y0146800D02*
X0086800Y0146800D01*
X0082788Y0152060D02*
X0052900Y0152060D01*
X0052900Y0150462D02*
X0080225Y0150462D01*
X0079210Y0148863D02*
X0052900Y0148863D01*
X0052900Y0147265D02*
X0078800Y0147265D01*
X0078825Y0145666D02*
X0052900Y0145666D01*
X0052900Y0144068D02*
X0079487Y0144068D01*
X0080894Y0142469D02*
X0052900Y0142469D01*
X0052900Y0140870D02*
X0080634Y0140870D01*
X0079379Y0139272D02*
X0052900Y0139272D01*
X0052900Y0137673D02*
X0078800Y0137673D01*
X0078800Y0136075D02*
X0052900Y0136075D01*
X0052900Y0134476D02*
X0079318Y0134476D01*
X0080485Y0132878D02*
X0052900Y0132878D01*
X0052900Y0131279D02*
X0081043Y0131279D01*
X0079548Y0129681D02*
X0054010Y0129681D01*
X0055609Y0128082D02*
X0078886Y0128082D01*
X0078800Y0126484D02*
X0057207Y0126484D01*
X0058806Y0124885D02*
X0079148Y0124885D01*
X0080076Y0123287D02*
X0060404Y0123287D01*
X0062003Y0121688D02*
X0081891Y0121688D01*
X0079853Y0120090D02*
X0063601Y0120090D01*
X0065200Y0118491D02*
X0079056Y0118491D01*
X0078800Y0116893D02*
X0066798Y0116893D01*
X0068397Y0115294D02*
X0078979Y0115294D01*
X0079667Y0113696D02*
X0069995Y0113696D01*
X0071594Y0112097D02*
X0081442Y0112097D01*
X0080262Y0110499D02*
X0073192Y0110499D01*
X0074791Y0108900D02*
X0079225Y0108900D01*
X0078800Y0107302D02*
X0076389Y0107302D01*
X0077988Y0105703D02*
X0078809Y0105703D01*
X0076800Y0101800D02*
X0049300Y0129300D01*
X0049300Y0160800D01*
X0047102Y0164848D02*
X0043843Y0164848D01*
X0045096Y0163250D02*
X0045356Y0163250D01*
X0042244Y0166447D02*
X0056568Y0166447D01*
X0055082Y0164848D02*
X0051498Y0164848D01*
X0053244Y0163250D02*
X0054224Y0163250D01*
X0053881Y0161651D02*
X0061600Y0161651D01*
X0055358Y0158454D02*
X0053287Y0158454D01*
X0052900Y0156856D02*
X0080736Y0156856D01*
X0085596Y0158454D02*
X0093923Y0158454D01*
X0092400Y0160053D02*
X0086542Y0160053D01*
X0086850Y0161651D02*
X0092400Y0161651D01*
X0092400Y0163250D02*
X0086639Y0163250D01*
X0085828Y0164848D02*
X0093626Y0164848D01*
X0099083Y0166447D02*
X0108810Y0166447D01*
X0107211Y0164848D02*
X0099974Y0164848D01*
X0101200Y0163250D02*
X0106400Y0163250D01*
X0106400Y0161651D02*
X0101200Y0161651D01*
X0101200Y0160053D02*
X0106400Y0160053D01*
X0105739Y0155257D02*
X0052900Y0155257D01*
X0052900Y0153659D02*
X0103567Y0153659D01*
X0101969Y0152060D02*
X0090812Y0152060D01*
X0093375Y0150462D02*
X0100370Y0150462D01*
X0098200Y0142469D02*
X0092706Y0142469D01*
X0092966Y0140870D02*
X0098200Y0140870D01*
X0098200Y0139272D02*
X0094221Y0139272D01*
X0094800Y0137673D02*
X0098200Y0137673D01*
X0098200Y0136075D02*
X0094800Y0136075D01*
X0094282Y0134476D02*
X0098200Y0134476D01*
X0098200Y0132878D02*
X0093115Y0132878D01*
X0092557Y0131279D02*
X0098200Y0131279D01*
X0098200Y0129681D02*
X0094052Y0129681D01*
X0094714Y0128082D02*
X0098200Y0128082D01*
X0098200Y0126484D02*
X0094800Y0126484D01*
X0094452Y0124885D02*
X0098200Y0124885D01*
X0098200Y0123287D02*
X0093524Y0123287D01*
X0091709Y0121688D02*
X0098200Y0121688D01*
X0098200Y0120090D02*
X0093747Y0120090D01*
X0094544Y0118491D02*
X0098200Y0118491D01*
X0098200Y0116893D02*
X0094800Y0116893D01*
X0094621Y0115294D02*
X0098200Y0115294D01*
X0098200Y0113696D02*
X0093933Y0113696D01*
X0092157Y0112097D02*
X0098200Y0112097D01*
X0098200Y0110499D02*
X0093338Y0110499D01*
X0094300Y0101800D02*
X0076800Y0101800D01*
X0074300Y0091800D02*
X0094300Y0091800D01*
X0099300Y0086800D01*
X0116800Y0086800D01*
X0122520Y0091317D02*
X0147400Y0091317D01*
X0147400Y0091800D02*
X0147400Y0089977D01*
X0149977Y0087400D01*
X0151800Y0087400D01*
X0153623Y0087400D01*
X0156200Y0089977D01*
X0156200Y0091800D01*
X0156200Y0093623D01*
X0153623Y0096200D01*
X0151800Y0096200D01*
X0151800Y0091800D01*
X0151800Y0091800D01*
X0156200Y0091800D01*
X0151800Y0091800D01*
X0151800Y0091800D01*
X0151800Y0091800D01*
X0147400Y0091800D01*
X0147400Y0093623D01*
X0149977Y0096200D01*
X0151800Y0096200D01*
X0151800Y0091800D01*
X0151800Y0087400D01*
X0151800Y0091800D01*
X0151800Y0091800D01*
X0147400Y0091800D01*
X0147400Y0092915D02*
X0123152Y0092915D01*
X0124298Y0094514D02*
X0148291Y0094514D01*
X0149890Y0096112D02*
X0124800Y0096112D01*
X0124800Y0097711D02*
X0186351Y0097711D01*
X0185323Y0096112D02*
X0153710Y0096112D01*
X0151800Y0096112D02*
X0151800Y0096112D01*
X0151800Y0094514D02*
X0151800Y0094514D01*
X0151800Y0092915D02*
X0151800Y0092915D01*
X0151800Y0091317D02*
X0151800Y0091317D01*
X0151800Y0089718D02*
X0151800Y0089718D01*
X0151800Y0088120D02*
X0151800Y0088120D01*
X0154037Y0087200D02*
X0149563Y0087200D01*
X0146400Y0084037D01*
X0146400Y0079563D01*
X0149563Y0076400D01*
X0154037Y0076400D01*
X0157200Y0079563D01*
X0157200Y0084037D01*
X0154037Y0087200D01*
X0154716Y0086521D02*
X0161400Y0086521D01*
X0161400Y0084923D02*
X0156314Y0084923D01*
X0157200Y0083324D02*
X0162639Y0083324D01*
X0164238Y0081726D02*
X0157200Y0081726D01*
X0157200Y0080127D02*
X0185457Y0080127D01*
X0185300Y0081726D02*
X0169362Y0081726D01*
X0166800Y0086800D02*
X0176800Y0086800D01*
X0181800Y0091800D01*
X0191800Y0091800D01*
X0185300Y0088120D02*
X0183211Y0088120D01*
X0181612Y0086521D02*
X0185723Y0086521D01*
X0186058Y0084923D02*
X0180014Y0084923D01*
X0177816Y0083324D02*
X0185396Y0083324D01*
X0186120Y0078529D02*
X0156165Y0078529D01*
X0154567Y0076930D02*
X0187478Y0076930D01*
X0186227Y0075332D02*
X0124637Y0075332D01*
X0124800Y0076930D02*
X0149033Y0076930D01*
X0147435Y0078529D02*
X0124529Y0078529D01*
X0123710Y0080127D02*
X0146400Y0080127D01*
X0146400Y0081726D02*
X0121619Y0081726D01*
X0123561Y0083324D02*
X0146400Y0083324D01*
X0147286Y0084923D02*
X0124467Y0084923D01*
X0124800Y0086521D02*
X0148884Y0086521D01*
X0149258Y0088120D02*
X0124698Y0088120D01*
X0124036Y0089718D02*
X0147659Y0089718D01*
X0154342Y0088120D02*
X0161400Y0088120D01*
X0162081Y0089718D02*
X0155941Y0089718D01*
X0156200Y0091317D02*
X0163680Y0091317D01*
X0169920Y0091317D02*
X0176225Y0091317D01*
X0177824Y0092915D02*
X0156200Y0092915D01*
X0155309Y0094514D02*
X0179422Y0094514D01*
X0195850Y0099309D02*
X0124206Y0099309D01*
X0122929Y0100908D02*
X0195850Y0100908D01*
X0195850Y0102506D02*
X0153405Y0102506D01*
X0152711Y0102219D02*
X0154395Y0102916D01*
X0155684Y0104205D01*
X0156381Y0105889D01*
X0156381Y0107711D01*
X0155684Y0109395D01*
X0155400Y0109679D01*
X0155400Y0130309D01*
X0158291Y0133200D01*
X0180016Y0133200D01*
X0181339Y0133748D01*
X0182352Y0134761D01*
X0189852Y0142261D01*
X0190400Y0143584D01*
X0190400Y0162763D01*
X0192200Y0164563D01*
X0192200Y0169037D01*
X0190400Y0170837D01*
X0190400Y0181773D01*
X0191971Y0183345D01*
X0192900Y0185587D01*
X0192900Y0188013D01*
X0191971Y0190255D01*
X0190255Y0191971D01*
X0188013Y0192900D01*
X0185587Y0192900D01*
X0183345Y0191971D01*
X0181629Y0190255D01*
X0180700Y0188013D01*
X0180700Y0185587D01*
X0181629Y0183345D01*
X0183200Y0181773D01*
X0183200Y0170837D01*
X0181400Y0169037D01*
X0181400Y0164563D01*
X0183200Y0162763D01*
X0183200Y0145791D01*
X0177809Y0140400D01*
X0156084Y0140400D01*
X0154761Y0139852D01*
X0149761Y0134852D01*
X0148748Y0133839D01*
X0148200Y0132516D01*
X0148200Y0109679D01*
X0147916Y0109395D01*
X0147219Y0107711D01*
X0147219Y0105889D01*
X0147916Y0104205D01*
X0149205Y0102916D01*
X0150889Y0102219D01*
X0152711Y0102219D01*
X0150195Y0102506D02*
X0122743Y0102506D01*
X0124128Y0104105D02*
X0148017Y0104105D01*
X0147296Y0105703D02*
X0124791Y0105703D01*
X0124800Y0107302D02*
X0147219Y0107302D01*
X0147711Y0108900D02*
X0124375Y0108900D01*
X0123338Y0110499D02*
X0148200Y0110499D01*
X0148200Y0112097D02*
X0122158Y0112097D01*
X0123933Y0113696D02*
X0148200Y0113696D01*
X0148200Y0115294D02*
X0124621Y0115294D01*
X0124800Y0116893D02*
X0148200Y0116893D01*
X0148200Y0118491D02*
X0124544Y0118491D01*
X0123747Y0120090D02*
X0148200Y0120090D01*
X0148200Y0121688D02*
X0121709Y0121688D01*
X0123524Y0123287D02*
X0148200Y0123287D01*
X0148200Y0124885D02*
X0124452Y0124885D01*
X0124800Y0126484D02*
X0148200Y0126484D01*
X0148200Y0128082D02*
X0124714Y0128082D01*
X0124052Y0129681D02*
X0148200Y0129681D01*
X0148200Y0131279D02*
X0122557Y0131279D01*
X0121394Y0132878D02*
X0129500Y0132878D01*
X0129977Y0132400D02*
X0127400Y0134977D01*
X0127400Y0136800D01*
X0131800Y0136800D01*
X0131800Y0136800D01*
X0131800Y0141200D01*
X0133623Y0141200D01*
X0136200Y0138623D01*
X0136200Y0136800D01*
X0131800Y0136800D01*
X0131800Y0136800D01*
X0131800Y0136800D01*
X0131800Y0141200D01*
X0129977Y0141200D01*
X0127400Y0138623D01*
X0127400Y0136800D01*
X0131800Y0136800D01*
X0136200Y0136800D01*
X0136200Y0134977D01*
X0133623Y0132400D01*
X0131800Y0132400D01*
X0131800Y0136800D01*
X0131800Y0136800D01*
X0131800Y0132400D01*
X0129977Y0132400D01*
X0131800Y0132878D02*
X0131800Y0132878D01*
X0131800Y0134476D02*
X0131800Y0134476D01*
X0131800Y0136075D02*
X0131800Y0136075D01*
X0131800Y0137673D02*
X0131800Y0137673D01*
X0131800Y0139272D02*
X0131800Y0139272D01*
X0131800Y0140870D02*
X0131800Y0140870D01*
X0133952Y0140870D02*
X0178279Y0140870D01*
X0179878Y0142469D02*
X0135106Y0142469D01*
X0134037Y0141400D02*
X0137200Y0144563D01*
X0137200Y0149037D01*
X0134037Y0152200D01*
X0129563Y0152200D01*
X0126400Y0149037D01*
X0126400Y0144563D01*
X0129563Y0141400D01*
X0134037Y0141400D01*
X0135551Y0139272D02*
X0154181Y0139272D01*
X0152582Y0137673D02*
X0136200Y0137673D01*
X0136200Y0136075D02*
X0150984Y0136075D01*
X0149385Y0134476D02*
X0135699Y0134476D01*
X0134100Y0132878D02*
X0148350Y0132878D01*
X0151800Y0131800D02*
X0151800Y0106800D01*
X0155889Y0108900D02*
X0195850Y0108900D01*
X0195850Y0107302D02*
X0156381Y0107302D01*
X0156304Y0105703D02*
X0195850Y0105703D01*
X0195850Y0104105D02*
X0155583Y0104105D01*
X0155400Y0110499D02*
X0195850Y0110499D01*
X0195850Y0112097D02*
X0155400Y0112097D01*
X0155400Y0113696D02*
X0195850Y0113696D01*
X0195850Y0115294D02*
X0155400Y0115294D01*
X0155400Y0116893D02*
X0195850Y0116893D01*
X0195850Y0118491D02*
X0155400Y0118491D01*
X0155400Y0120090D02*
X0195850Y0120090D01*
X0195850Y0121688D02*
X0189325Y0121688D01*
X0189037Y0121400D02*
X0192200Y0124563D01*
X0192200Y0129037D01*
X0189037Y0132200D01*
X0184563Y0132200D01*
X0181400Y0129037D01*
X0181400Y0124563D01*
X0184563Y0121400D01*
X0189037Y0121400D01*
X0190924Y0123287D02*
X0195850Y0123287D01*
X0195850Y0124885D02*
X0192200Y0124885D01*
X0192200Y0126484D02*
X0195850Y0126484D01*
X0195850Y0128082D02*
X0192200Y0128082D01*
X0191556Y0129681D02*
X0195850Y0129681D01*
X0195850Y0131279D02*
X0189957Y0131279D01*
X0195850Y0132878D02*
X0157969Y0132878D01*
X0156371Y0131279D02*
X0168643Y0131279D01*
X0169563Y0132200D02*
X0166400Y0129037D01*
X0166400Y0124563D01*
X0169563Y0121400D01*
X0174037Y0121400D01*
X0177200Y0124563D01*
X0177200Y0129037D01*
X0174037Y0132200D01*
X0169563Y0132200D01*
X0167044Y0129681D02*
X0155400Y0129681D01*
X0155400Y0128082D02*
X0166400Y0128082D01*
X0166400Y0126484D02*
X0155400Y0126484D01*
X0155400Y0124885D02*
X0166400Y0124885D01*
X0167676Y0123287D02*
X0155400Y0123287D01*
X0155400Y0121688D02*
X0169275Y0121688D01*
X0174325Y0121688D02*
X0184275Y0121688D01*
X0182676Y0123287D02*
X0175924Y0123287D01*
X0177200Y0124885D02*
X0181400Y0124885D01*
X0181400Y0126484D02*
X0177200Y0126484D01*
X0177200Y0128082D02*
X0181400Y0128082D01*
X0182044Y0129681D02*
X0176556Y0129681D01*
X0174957Y0131279D02*
X0183643Y0131279D01*
X0182068Y0134476D02*
X0195850Y0134476D01*
X0195850Y0136075D02*
X0183666Y0136075D01*
X0185265Y0137673D02*
X0195850Y0137673D01*
X0195850Y0139272D02*
X0186863Y0139272D01*
X0188462Y0140870D02*
X0195850Y0140870D01*
X0195850Y0142469D02*
X0189938Y0142469D01*
X0190400Y0144068D02*
X0195850Y0144068D01*
X0195850Y0145666D02*
X0190400Y0145666D01*
X0190400Y0147265D02*
X0195850Y0147265D01*
X0195850Y0148863D02*
X0190400Y0148863D01*
X0190400Y0150462D02*
X0195850Y0150462D01*
X0195850Y0152060D02*
X0190400Y0152060D01*
X0190400Y0153659D02*
X0195850Y0153659D01*
X0195850Y0155257D02*
X0190400Y0155257D01*
X0190400Y0156856D02*
X0195850Y0156856D01*
X0195850Y0158454D02*
X0190400Y0158454D01*
X0190400Y0160053D02*
X0195850Y0160053D01*
X0195850Y0161651D02*
X0190400Y0161651D01*
X0190886Y0163250D02*
X0195850Y0163250D01*
X0195850Y0164848D02*
X0192200Y0164848D01*
X0192200Y0166447D02*
X0195850Y0166447D01*
X0195850Y0168045D02*
X0192200Y0168045D01*
X0191593Y0169644D02*
X0195850Y0169644D01*
X0195850Y0171242D02*
X0190400Y0171242D01*
X0190400Y0172841D02*
X0195850Y0172841D01*
X0195850Y0174439D02*
X0190400Y0174439D01*
X0190400Y0176038D02*
X0195850Y0176038D01*
X0195850Y0177636D02*
X0190400Y0177636D01*
X0190400Y0179235D02*
X0195850Y0179235D01*
X0195850Y0180833D02*
X0190400Y0180833D01*
X0191058Y0182432D02*
X0195850Y0182432D01*
X0195850Y0184030D02*
X0192255Y0184030D01*
X0192900Y0185629D02*
X0195850Y0185629D01*
X0195850Y0187227D02*
X0192900Y0187227D01*
X0192563Y0188826D02*
X0195850Y0188826D01*
X0195850Y0190424D02*
X0191802Y0190424D01*
X0190131Y0192023D02*
X0195850Y0192023D01*
X0195850Y0193621D02*
X0004600Y0193621D01*
X0004600Y0192023D02*
X0074386Y0192023D01*
X0072788Y0190424D02*
X0004600Y0190424D01*
X0004600Y0188826D02*
X0007562Y0188826D01*
X0005963Y0187227D02*
X0004600Y0187227D01*
X0004600Y0185629D02*
X0004913Y0185629D01*
X0005051Y0177636D02*
X0004600Y0177636D01*
X0004600Y0176038D02*
X0006298Y0176038D01*
X0004600Y0174439D02*
X0008223Y0174439D01*
X0004600Y0172841D02*
X0053000Y0172841D01*
X0053000Y0171242D02*
X0033759Y0171242D01*
X0036964Y0174439D02*
X0016636Y0174439D01*
X0020141Y0171242D02*
X0004600Y0171242D01*
X0004600Y0169644D02*
X0018777Y0169644D01*
X0018125Y0168045D02*
X0004600Y0168045D01*
X0004600Y0166447D02*
X0018125Y0166447D01*
X0018109Y0164848D02*
X0004600Y0164848D01*
X0004600Y0163250D02*
X0016172Y0163250D01*
X0015505Y0161651D02*
X0004600Y0161651D01*
X0004600Y0160053D02*
X0015489Y0160053D01*
X0015533Y0159776D02*
X0015746Y0159121D01*
X0016058Y0158507D01*
X0016463Y0157950D01*
X0016950Y0157463D01*
X0017507Y0157058D01*
X0018121Y0156746D01*
X0018776Y0156533D01*
X0019456Y0156425D01*
X0019800Y0156425D01*
X0019800Y0160800D01*
X0019800Y0160800D01*
X0019800Y0160800D01*
X0015425Y0160800D01*
X0015425Y0160456D01*
X0015533Y0159776D01*
X0016097Y0158454D02*
X0004600Y0158454D01*
X0004600Y0156856D02*
X0017905Y0156856D01*
X0019800Y0156856D02*
X0019800Y0156856D01*
X0019800Y0158454D02*
X0019800Y0158454D01*
X0019800Y0160053D02*
X0019800Y0160053D01*
X0021695Y0156856D02*
X0023143Y0156856D01*
X0023200Y0155257D02*
X0004600Y0155257D01*
X0004600Y0153659D02*
X0023200Y0153659D01*
X0023200Y0152060D02*
X0004600Y0152060D01*
X0004600Y0150462D02*
X0023200Y0150462D01*
X0023200Y0148863D02*
X0004600Y0148863D01*
X0012695Y0147265D02*
X0023200Y0147265D01*
X0023200Y0145666D02*
X0013300Y0145666D01*
X0013300Y0144068D02*
X0023200Y0144068D01*
X0023200Y0142469D02*
X0013300Y0142469D01*
X0013300Y0140870D02*
X0023200Y0140870D01*
X0023200Y0139272D02*
X0013300Y0139272D01*
X0013300Y0137673D02*
X0023200Y0137673D01*
X0023200Y0136075D02*
X0012435Y0136075D01*
X0012727Y0134476D02*
X0023200Y0134476D01*
X0023200Y0132878D02*
X0013300Y0132878D01*
X0013300Y0131279D02*
X0023200Y0131279D01*
X0023200Y0129681D02*
X0012958Y0129681D01*
X0012275Y0128082D02*
X0023200Y0128082D01*
X0023200Y0126484D02*
X0011308Y0126484D01*
X0012558Y0124885D02*
X0023696Y0124885D01*
X0025222Y0123287D02*
X0013220Y0123287D01*
X0013300Y0121688D02*
X0026820Y0121688D01*
X0028419Y0120090D02*
X0013127Y0120090D01*
X0012465Y0118491D02*
X0030017Y0118491D01*
X0031616Y0116893D02*
X0011085Y0116893D01*
X0012388Y0115294D02*
X0023816Y0115294D01*
X0022627Y0113696D02*
X0013050Y0113696D01*
X0013300Y0112097D02*
X0022219Y0112097D01*
X0022380Y0110499D02*
X0013297Y0110499D01*
X0012634Y0108900D02*
X0023221Y0108900D01*
X0025689Y0107302D02*
X0011494Y0107302D01*
X0009066Y0105703D02*
X0027806Y0105703D01*
X0029404Y0104105D02*
X0004600Y0104105D01*
X0004600Y0102506D02*
X0031003Y0102506D01*
X0032601Y0100908D02*
X0004600Y0100908D01*
X0004600Y0099309D02*
X0034200Y0099309D01*
X0035798Y0097711D02*
X0012249Y0097711D01*
X0013277Y0096112D02*
X0020240Y0096112D01*
X0023360Y0096112D02*
X0037397Y0096112D01*
X0038200Y0094514D02*
X0025565Y0094514D01*
X0026297Y0092915D02*
X0038200Y0092915D01*
X0038200Y0091317D02*
X0027375Y0091317D01*
X0028973Y0089718D02*
X0038200Y0089718D01*
X0038200Y0088120D02*
X0030572Y0088120D01*
X0032170Y0086521D02*
X0038200Y0086521D01*
X0038200Y0084923D02*
X0033769Y0084923D01*
X0035065Y0083324D02*
X0038200Y0083324D01*
X0038200Y0081726D02*
X0035400Y0081726D01*
X0035400Y0080127D02*
X0038200Y0080127D01*
X0038200Y0078529D02*
X0035400Y0078529D01*
X0035400Y0076930D02*
X0038200Y0076930D01*
X0038200Y0075332D02*
X0035400Y0075332D01*
X0035400Y0073733D02*
X0038200Y0073733D01*
X0038200Y0072134D02*
X0035400Y0072134D01*
X0035400Y0070536D02*
X0038200Y0070536D01*
X0038200Y0068937D02*
X0035400Y0068937D01*
X0035400Y0067339D02*
X0038200Y0067339D01*
X0038200Y0065740D02*
X0035400Y0065740D01*
X0035400Y0064142D02*
X0038200Y0064142D01*
X0038200Y0062543D02*
X0035400Y0062543D01*
X0035400Y0060945D02*
X0038200Y0060945D01*
X0038200Y0059346D02*
X0035400Y0059346D01*
X0035400Y0057748D02*
X0038200Y0057748D01*
X0038200Y0056149D02*
X0035400Y0056149D01*
X0035400Y0054551D02*
X0038200Y0054551D01*
X0038200Y0052952D02*
X0035400Y0052952D01*
X0035400Y0051354D02*
X0038200Y0051354D01*
X0038200Y0049755D02*
X0035400Y0049755D01*
X0035400Y0048157D02*
X0038200Y0048157D01*
X0038200Y0046558D02*
X0035400Y0046558D01*
X0035400Y0044960D02*
X0038200Y0044960D01*
X0038200Y0043361D02*
X0035400Y0043361D01*
X0035400Y0041763D02*
X0038200Y0041763D01*
X0038200Y0040164D02*
X0035400Y0040164D01*
X0035400Y0038566D02*
X0038200Y0038566D01*
X0038200Y0036967D02*
X0035400Y0036967D01*
X0035400Y0035369D02*
X0038200Y0035369D01*
X0038200Y0033770D02*
X0035400Y0033770D01*
X0035400Y0032172D02*
X0038200Y0032172D01*
X0038200Y0030573D02*
X0035400Y0030573D01*
X0035400Y0028975D02*
X0038200Y0028975D01*
X0038200Y0027376D02*
X0035400Y0027376D01*
X0035400Y0025778D02*
X0038200Y0025778D01*
X0038200Y0024179D02*
X0035400Y0024179D01*
X0035400Y0022581D02*
X0038200Y0022581D01*
X0038200Y0020982D02*
X0035400Y0020982D01*
X0035400Y0019384D02*
X0038200Y0019384D01*
X0038200Y0017785D02*
X0035400Y0017785D01*
X0036606Y0016187D02*
X0036994Y0016187D01*
X0041800Y0011800D02*
X0041800Y0096800D01*
X0026800Y0111800D01*
X0030973Y0113696D02*
X0034813Y0113696D01*
X0033215Y0115294D02*
X0029784Y0115294D01*
X0031594Y0112097D02*
X0036412Y0112097D01*
X0038010Y0110499D02*
X0033192Y0110499D01*
X0034791Y0108900D02*
X0039609Y0108900D01*
X0041207Y0107302D02*
X0036389Y0107302D01*
X0037988Y0105703D02*
X0042806Y0105703D01*
X0044404Y0104105D02*
X0039586Y0104105D01*
X0041185Y0102506D02*
X0046003Y0102506D01*
X0047601Y0100908D02*
X0042783Y0100908D01*
X0044382Y0099309D02*
X0049200Y0099309D01*
X0050798Y0097711D02*
X0045319Y0097711D01*
X0045400Y0096112D02*
X0052397Y0096112D01*
X0053995Y0094514D02*
X0045400Y0094514D01*
X0045400Y0092915D02*
X0055594Y0092915D01*
X0057192Y0091317D02*
X0045400Y0091317D01*
X0045400Y0089718D02*
X0058791Y0089718D01*
X0060389Y0088120D02*
X0045400Y0088120D01*
X0045400Y0086521D02*
X0061988Y0086521D01*
X0063586Y0084923D02*
X0045400Y0084923D01*
X0045400Y0083324D02*
X0065185Y0083324D01*
X0066783Y0081726D02*
X0045400Y0081726D01*
X0045400Y0080127D02*
X0068382Y0080127D01*
X0068013Y0077900D02*
X0065587Y0077900D01*
X0063345Y0076971D01*
X0061629Y0075255D01*
X0060700Y0073013D01*
X0060700Y0070587D01*
X0061629Y0068345D01*
X0063173Y0066800D01*
X0061629Y0065255D01*
X0060700Y0063013D01*
X0060700Y0060587D01*
X0061629Y0058345D01*
X0063173Y0056800D01*
X0061629Y0055255D01*
X0060700Y0053013D01*
X0060700Y0050587D01*
X0061629Y0048345D01*
X0063345Y0046629D01*
X0065587Y0045700D01*
X0068013Y0045700D01*
X0070255Y0046629D01*
X0071971Y0048345D01*
X0072900Y0050587D01*
X0072900Y0053013D01*
X0071971Y0055255D01*
X0070427Y0056800D01*
X0071971Y0058345D01*
X0072900Y0060587D01*
X0072900Y0063013D01*
X0071971Y0065255D01*
X0070427Y0066800D01*
X0071971Y0068345D01*
X0072900Y0070587D01*
X0072900Y0073013D01*
X0071971Y0075255D01*
X0070255Y0076971D01*
X0068013Y0077900D01*
X0070291Y0078529D02*
X0045400Y0078529D01*
X0045400Y0076930D02*
X0063303Y0076930D01*
X0061705Y0075332D02*
X0045400Y0075332D01*
X0045400Y0073733D02*
X0060998Y0073733D01*
X0060700Y0072134D02*
X0045400Y0072134D01*
X0045400Y0070536D02*
X0060721Y0070536D01*
X0061383Y0068937D02*
X0045400Y0068937D01*
X0045400Y0067339D02*
X0062634Y0067339D01*
X0062114Y0065740D02*
X0045400Y0065740D01*
X0045400Y0064142D02*
X0061167Y0064142D01*
X0060700Y0062543D02*
X0045400Y0062543D01*
X0045400Y0060945D02*
X0060700Y0060945D01*
X0061214Y0059346D02*
X0045400Y0059346D01*
X0045400Y0057748D02*
X0062225Y0057748D01*
X0062523Y0056149D02*
X0045400Y0056149D01*
X0045400Y0054551D02*
X0061337Y0054551D01*
X0060700Y0052952D02*
X0045400Y0052952D01*
X0045400Y0051354D02*
X0060700Y0051354D01*
X0061044Y0049755D02*
X0045400Y0049755D01*
X0045400Y0048157D02*
X0061816Y0048157D01*
X0063514Y0046558D02*
X0045400Y0046558D01*
X0045400Y0044960D02*
X0079117Y0044960D01*
X0078800Y0045726D02*
X0079622Y0043741D01*
X0081141Y0042222D01*
X0082160Y0041800D01*
X0081141Y0041378D01*
X0079622Y0039859D01*
X0078800Y0037874D01*
X0078800Y0035726D01*
X0079622Y0033741D01*
X0081141Y0032222D01*
X0082160Y0031800D01*
X0081141Y0031378D01*
X0079622Y0029859D01*
X0078800Y0027874D01*
X0078800Y0025726D01*
X0079622Y0023741D01*
X0081141Y0022222D01*
X0082160Y0021800D01*
X0081141Y0021378D01*
X0079622Y0019859D01*
X0078800Y0017874D01*
X0078800Y0015726D01*
X0079622Y0013741D01*
X0081141Y0012222D01*
X0083126Y0011400D01*
X0090474Y0011400D01*
X0092459Y0012222D01*
X0093978Y0013741D01*
X0094800Y0015726D01*
X0094800Y0017874D01*
X0093978Y0019859D01*
X0092459Y0021378D01*
X0091440Y0021800D01*
X0092459Y0022222D01*
X0093978Y0023741D01*
X0094800Y0025726D01*
X0094800Y0027874D01*
X0093978Y0029859D01*
X0092459Y0031378D01*
X0091440Y0031800D01*
X0092459Y0032222D01*
X0093978Y0033741D01*
X0094800Y0035726D01*
X0094800Y0037874D01*
X0093978Y0039859D01*
X0092459Y0041378D01*
X0091440Y0041800D01*
X0092459Y0042222D01*
X0093978Y0043741D01*
X0094800Y0045726D01*
X0094800Y0047874D01*
X0093978Y0049859D01*
X0092459Y0051378D01*
X0091440Y0051800D01*
X0092459Y0052222D01*
X0093978Y0053741D01*
X0094800Y0055726D01*
X0094800Y0057874D01*
X0093978Y0059859D01*
X0092459Y0061378D01*
X0091440Y0061800D01*
X0092459Y0062222D01*
X0093978Y0063741D01*
X0094800Y0065726D01*
X0094800Y0067874D01*
X0093978Y0069859D01*
X0092459Y0071378D01*
X0090474Y0072200D01*
X0083126Y0072200D01*
X0081141Y0071378D01*
X0079622Y0069859D01*
X0078800Y0067874D01*
X0078800Y0065726D01*
X0079622Y0063741D01*
X0081141Y0062222D01*
X0082160Y0061800D01*
X0081141Y0061378D01*
X0079622Y0059859D01*
X0078800Y0057874D01*
X0078800Y0055726D01*
X0079622Y0053741D01*
X0081141Y0052222D01*
X0082160Y0051800D01*
X0081141Y0051378D01*
X0079622Y0049859D01*
X0078800Y0047874D01*
X0078800Y0045726D01*
X0078800Y0046558D02*
X0070086Y0046558D01*
X0071784Y0048157D02*
X0078917Y0048157D01*
X0079579Y0049755D02*
X0072556Y0049755D01*
X0072900Y0051354D02*
X0081117Y0051354D01*
X0080411Y0052952D02*
X0072900Y0052952D01*
X0072263Y0054551D02*
X0079287Y0054551D01*
X0078800Y0056149D02*
X0071077Y0056149D01*
X0071375Y0057748D02*
X0078800Y0057748D01*
X0079410Y0059346D02*
X0072386Y0059346D01*
X0072900Y0060945D02*
X0080708Y0060945D01*
X0080820Y0062543D02*
X0072900Y0062543D01*
X0072433Y0064142D02*
X0079456Y0064142D01*
X0078800Y0065740D02*
X0071486Y0065740D01*
X0070966Y0067339D02*
X0078800Y0067339D01*
X0079240Y0068937D02*
X0072217Y0068937D01*
X0072879Y0070536D02*
X0080299Y0070536D01*
X0081894Y0073037D02*
X0082511Y0072722D01*
X0083170Y0072508D01*
X0083854Y0072400D01*
X0086800Y0072400D01*
X0089746Y0072400D01*
X0090430Y0072508D01*
X0091089Y0072722D01*
X0091706Y0073037D01*
X0092266Y0073444D01*
X0092756Y0073934D01*
X0093163Y0074494D01*
X0093478Y0075111D01*
X0093692Y0075770D01*
X0093800Y0076454D01*
X0093800Y0076800D01*
X0086800Y0076800D01*
X0086800Y0076800D01*
X0086800Y0072400D01*
X0086800Y0076800D01*
X0086800Y0076800D01*
X0086800Y0076800D01*
X0079800Y0076800D01*
X0079800Y0076454D01*
X0079908Y0075770D01*
X0080122Y0075111D01*
X0080437Y0074494D01*
X0080844Y0073934D01*
X0081334Y0073444D01*
X0081894Y0073037D01*
X0081044Y0073733D02*
X0072602Y0073733D01*
X0072900Y0072134D02*
X0082968Y0072134D01*
X0086800Y0073733D02*
X0086800Y0073733D01*
X0086800Y0075332D02*
X0086800Y0075332D01*
X0090632Y0072134D02*
X0111353Y0072134D01*
X0110299Y0070536D02*
X0093301Y0070536D01*
X0094360Y0068937D02*
X0109240Y0068937D01*
X0108800Y0067339D02*
X0094800Y0067339D01*
X0094800Y0065740D02*
X0108800Y0065740D01*
X0109456Y0064142D02*
X0094144Y0064142D01*
X0092780Y0062543D02*
X0110820Y0062543D01*
X0111894Y0060563D02*
X0111334Y0060156D01*
X0110844Y0059666D01*
X0110437Y0059106D01*
X0110122Y0058489D01*
X0109908Y0057830D01*
X0109800Y0057146D01*
X0109800Y0056800D01*
X0116800Y0056800D01*
X0116800Y0056800D01*
X0116800Y0061200D01*
X0119746Y0061200D01*
X0120430Y0061092D01*
X0121089Y0060878D01*
X0121706Y0060563D01*
X0122266Y0060156D01*
X0122756Y0059666D01*
X0123163Y0059106D01*
X0123478Y0058489D01*
X0123692Y0057830D01*
X0123800Y0057146D01*
X0123800Y0056800D01*
X0116800Y0056800D01*
X0116800Y0056800D01*
X0116800Y0052400D01*
X0119746Y0052400D01*
X0120430Y0052508D01*
X0121089Y0052722D01*
X0121706Y0053037D01*
X0122266Y0053444D01*
X0122756Y0053934D01*
X0123163Y0054494D01*
X0123478Y0055111D01*
X0123692Y0055770D01*
X0123800Y0056454D01*
X0123800Y0056800D01*
X0116800Y0056800D01*
X0116800Y0056800D01*
X0116800Y0056800D01*
X0116800Y0061200D01*
X0113854Y0061200D01*
X0113170Y0061092D01*
X0112511Y0060878D01*
X0111894Y0060563D01*
X0112718Y0060945D02*
X0092892Y0060945D01*
X0094190Y0059346D02*
X0110611Y0059346D01*
X0109895Y0057748D02*
X0094800Y0057748D01*
X0094800Y0056149D02*
X0109848Y0056149D01*
X0109800Y0056454D02*
X0109908Y0055770D01*
X0110122Y0055111D01*
X0110437Y0054494D01*
X0110844Y0053934D01*
X0111334Y0053444D01*
X0111894Y0053037D01*
X0112511Y0052722D01*
X0113170Y0052508D01*
X0113854Y0052400D01*
X0116800Y0052400D01*
X0116800Y0056800D01*
X0109800Y0056800D01*
X0109800Y0056454D01*
X0110408Y0054551D02*
X0094313Y0054551D01*
X0093189Y0052952D02*
X0112060Y0052952D01*
X0113126Y0052200D02*
X0111141Y0051378D01*
X0109622Y0049859D01*
X0108800Y0047874D01*
X0108800Y0045726D01*
X0109622Y0043741D01*
X0111141Y0042222D01*
X0112160Y0041800D01*
X0111141Y0041378D01*
X0109622Y0039859D01*
X0108800Y0037874D01*
X0108800Y0035726D01*
X0109622Y0033741D01*
X0111141Y0032222D01*
X0112160Y0031800D01*
X0111141Y0031378D01*
X0109622Y0029859D01*
X0108800Y0027874D01*
X0108800Y0025726D01*
X0109622Y0023741D01*
X0111141Y0022222D01*
X0112160Y0021800D01*
X0111141Y0021378D01*
X0109622Y0019859D01*
X0108800Y0017874D01*
X0108800Y0015726D01*
X0109622Y0013741D01*
X0111141Y0012222D01*
X0113126Y0011400D01*
X0120474Y0011400D01*
X0122459Y0012222D01*
X0123978Y0013741D01*
X0124800Y0015726D01*
X0124800Y0017874D01*
X0123978Y0019859D01*
X0122459Y0021378D01*
X0121440Y0021800D01*
X0122459Y0022222D01*
X0123978Y0023741D01*
X0124800Y0025726D01*
X0124800Y0027874D01*
X0123978Y0029859D01*
X0122459Y0031378D01*
X0121440Y0031800D01*
X0122459Y0032222D01*
X0123978Y0033741D01*
X0124800Y0035726D01*
X0124800Y0037874D01*
X0123978Y0039859D01*
X0122459Y0041378D01*
X0121440Y0041800D01*
X0122459Y0042222D01*
X0123978Y0043741D01*
X0124800Y0045726D01*
X0124800Y0047874D01*
X0123978Y0049859D01*
X0122459Y0051378D01*
X0120474Y0052200D01*
X0113126Y0052200D01*
X0111117Y0051354D02*
X0092483Y0051354D01*
X0094021Y0049755D02*
X0109579Y0049755D01*
X0108917Y0048157D02*
X0094683Y0048157D01*
X0094800Y0046558D02*
X0108800Y0046558D01*
X0109117Y0044960D02*
X0094483Y0044960D01*
X0093598Y0043361D02*
X0110002Y0043361D01*
X0112070Y0041763D02*
X0091530Y0041763D01*
X0093672Y0040164D02*
X0109928Y0040164D01*
X0109086Y0038566D02*
X0094514Y0038566D01*
X0094800Y0036967D02*
X0108800Y0036967D01*
X0108948Y0035369D02*
X0094652Y0035369D01*
X0093990Y0033770D02*
X0109610Y0033770D01*
X0111263Y0032172D02*
X0092337Y0032172D01*
X0093264Y0030573D02*
X0110336Y0030573D01*
X0109256Y0028975D02*
X0094344Y0028975D01*
X0094800Y0027376D02*
X0108800Y0027376D01*
X0108800Y0025778D02*
X0094800Y0025778D01*
X0094159Y0024179D02*
X0109441Y0024179D01*
X0110783Y0022581D02*
X0092817Y0022581D01*
X0092855Y0020982D02*
X0110745Y0020982D01*
X0109425Y0019384D02*
X0094175Y0019384D01*
X0094800Y0017785D02*
X0108800Y0017785D01*
X0108800Y0016187D02*
X0094800Y0016187D01*
X0094329Y0014588D02*
X0109271Y0014588D01*
X0110374Y0012990D02*
X0093226Y0012990D01*
X0080745Y0020982D02*
X0071073Y0020982D01*
X0069475Y0019384D02*
X0079425Y0019384D01*
X0078800Y0017785D02*
X0077175Y0017785D01*
X0078246Y0016187D02*
X0078800Y0016187D01*
X0079271Y0014588D02*
X0078300Y0014588D01*
X0078300Y0012990D02*
X0080374Y0012990D01*
X0078300Y0011391D02*
X0185300Y0011391D01*
X0185300Y0012990D02*
X0123226Y0012990D01*
X0124329Y0014588D02*
X0185919Y0014588D01*
X0186994Y0016187D02*
X0124800Y0016187D01*
X0124800Y0017785D02*
X0188037Y0017785D01*
X0186858Y0019384D02*
X0124175Y0019384D01*
X0122855Y0020982D02*
X0186361Y0020982D01*
X0186355Y0022581D02*
X0168803Y0022581D01*
X0168623Y0022400D02*
X0171200Y0024977D01*
X0171200Y0026800D01*
X0171200Y0028623D01*
X0168623Y0031200D01*
X0166800Y0031200D01*
X0166800Y0026800D01*
X0166800Y0026800D01*
X0171200Y0026800D01*
X0166800Y0026800D01*
X0166800Y0026800D01*
X0166800Y0026800D01*
X0162400Y0026800D01*
X0162400Y0028623D01*
X0164977Y0031200D01*
X0166800Y0031200D01*
X0166800Y0026800D01*
X0166800Y0022400D01*
X0168623Y0022400D01*
X0166800Y0022400D02*
X0166800Y0026800D01*
X0166800Y0026800D01*
X0162400Y0026800D01*
X0162400Y0024977D01*
X0164977Y0022400D01*
X0166800Y0022400D01*
X0166800Y0022581D02*
X0166800Y0022581D01*
X0166800Y0024179D02*
X0166800Y0024179D01*
X0166800Y0025778D02*
X0166800Y0025778D01*
X0166800Y0027376D02*
X0166800Y0027376D01*
X0166800Y0028975D02*
X0166800Y0028975D01*
X0166800Y0030573D02*
X0166800Y0030573D01*
X0164563Y0031400D02*
X0169037Y0031400D01*
X0172200Y0034563D01*
X0172200Y0039037D01*
X0169437Y0041800D01*
X0172200Y0044563D01*
X0172200Y0049037D01*
X0169037Y0052200D01*
X0164563Y0052200D01*
X0161400Y0049037D01*
X0161400Y0044563D01*
X0164163Y0041800D01*
X0161400Y0039037D01*
X0161400Y0034563D01*
X0164563Y0031400D01*
X0164351Y0030573D02*
X0155664Y0030573D01*
X0157200Y0029037D02*
X0154037Y0032200D01*
X0149563Y0032200D01*
X0146400Y0029037D01*
X0146400Y0024563D01*
X0149563Y0021400D01*
X0154037Y0021400D01*
X0157200Y0024563D01*
X0157200Y0029037D01*
X0157200Y0028975D02*
X0162752Y0028975D01*
X0162400Y0027376D02*
X0157200Y0027376D01*
X0157200Y0025778D02*
X0162400Y0025778D01*
X0163198Y0024179D02*
X0156816Y0024179D01*
X0155217Y0022581D02*
X0164797Y0022581D01*
X0170402Y0024179D02*
X0186839Y0024179D01*
X0188000Y0025778D02*
X0171200Y0025778D01*
X0171200Y0027376D02*
X0187031Y0027376D01*
X0185935Y0028975D02*
X0170848Y0028975D01*
X0169249Y0030573D02*
X0185300Y0030573D01*
X0185300Y0032172D02*
X0169808Y0032172D01*
X0171407Y0033770D02*
X0185581Y0033770D01*
X0186243Y0035369D02*
X0172200Y0035369D01*
X0172200Y0036967D02*
X0185538Y0036967D01*
X0185300Y0038566D02*
X0172200Y0038566D01*
X0171072Y0040164D02*
X0185300Y0040164D01*
X0185300Y0041763D02*
X0169474Y0041763D01*
X0170998Y0043361D02*
X0185300Y0043361D01*
X0185300Y0044960D02*
X0172200Y0044960D01*
X0172200Y0046558D02*
X0185508Y0046558D01*
X0187197Y0048157D02*
X0172200Y0048157D01*
X0171481Y0049755D02*
X0195850Y0049755D01*
X0195850Y0051354D02*
X0169883Y0051354D01*
X0163717Y0051354D02*
X0122483Y0051354D01*
X0121540Y0052952D02*
X0133506Y0052952D01*
X0133510Y0052948D02*
X0134153Y0052481D01*
X0134861Y0052120D01*
X0135617Y0051874D01*
X0136403Y0051750D01*
X0136800Y0051750D01*
X0137197Y0051750D01*
X0137983Y0051874D01*
X0138739Y0052120D01*
X0139447Y0052481D01*
X0140090Y0052948D01*
X0140652Y0053510D01*
X0141119Y0054153D01*
X0141480Y0054861D01*
X0141726Y0055617D01*
X0141850Y0056403D01*
X0141850Y0056800D01*
X0141850Y0057197D01*
X0141726Y0057983D01*
X0141480Y0058739D01*
X0141119Y0059447D01*
X0140652Y0060090D01*
X0140090Y0060652D01*
X0139955Y0060750D01*
X0140607Y0060750D01*
X0141636Y0061176D01*
X0142424Y0061964D01*
X0142850Y0062993D01*
X0142850Y0070607D01*
X0142424Y0071636D01*
X0141636Y0072424D01*
X0140607Y0072850D01*
X0132993Y0072850D01*
X0131964Y0072424D01*
X0131176Y0071636D01*
X0130750Y0070607D01*
X0130750Y0062993D01*
X0131176Y0061964D01*
X0131964Y0061176D01*
X0132993Y0060750D01*
X0133645Y0060750D01*
X0133510Y0060652D01*
X0132948Y0060090D01*
X0132481Y0059447D01*
X0132120Y0058739D01*
X0131874Y0057983D01*
X0131750Y0057197D01*
X0131750Y0056800D01*
X0136800Y0056800D01*
X0141850Y0056800D01*
X0136800Y0056800D01*
X0136800Y0056800D01*
X0136800Y0056800D01*
X0136800Y0051750D01*
X0136800Y0056800D01*
X0136800Y0056800D01*
X0131750Y0056800D01*
X0131750Y0056403D01*
X0131874Y0055617D01*
X0132120Y0054861D01*
X0132481Y0054153D01*
X0132948Y0053510D01*
X0133510Y0052948D01*
X0132278Y0054551D02*
X0123192Y0054551D01*
X0123752Y0056149D02*
X0131790Y0056149D01*
X0131837Y0057748D02*
X0123705Y0057748D01*
X0122989Y0059346D02*
X0132430Y0059346D01*
X0132522Y0060945D02*
X0120882Y0060945D01*
X0122780Y0062543D02*
X0130936Y0062543D01*
X0130750Y0064142D02*
X0124144Y0064142D01*
X0124800Y0065740D02*
X0130750Y0065740D01*
X0130750Y0067339D02*
X0124800Y0067339D01*
X0124360Y0068937D02*
X0130750Y0068937D01*
X0130750Y0070536D02*
X0123301Y0070536D01*
X0122247Y0072134D02*
X0131675Y0072134D01*
X0123970Y0073733D02*
X0185565Y0073733D01*
X0185300Y0072134D02*
X0154102Y0072134D01*
X0154037Y0072200D02*
X0149563Y0072200D01*
X0146400Y0069037D01*
X0146400Y0064563D01*
X0149563Y0061400D01*
X0154037Y0061400D01*
X0157200Y0064563D01*
X0157200Y0069037D01*
X0154037Y0072200D01*
X0155701Y0070536D02*
X0185300Y0070536D01*
X0185950Y0068937D02*
X0157200Y0068937D01*
X0157200Y0067339D02*
X0187069Y0067339D01*
X0186548Y0065740D02*
X0157200Y0065740D01*
X0156779Y0064142D02*
X0185735Y0064142D01*
X0185300Y0062543D02*
X0155180Y0062543D01*
X0148420Y0062543D02*
X0142664Y0062543D01*
X0142850Y0064142D02*
X0146821Y0064142D01*
X0146400Y0065740D02*
X0142850Y0065740D01*
X0142850Y0067339D02*
X0146400Y0067339D01*
X0146400Y0068937D02*
X0142850Y0068937D01*
X0142850Y0070536D02*
X0147899Y0070536D01*
X0149498Y0072134D02*
X0141925Y0072134D01*
X0141078Y0060945D02*
X0185300Y0060945D01*
X0185781Y0059346D02*
X0141170Y0059346D01*
X0141763Y0057748D02*
X0186660Y0057748D01*
X0188456Y0056149D02*
X0141810Y0056149D01*
X0141322Y0054551D02*
X0195850Y0054551D01*
X0195850Y0056149D02*
X0195144Y0056149D01*
X0195850Y0052952D02*
X0140094Y0052952D01*
X0136800Y0052952D02*
X0136800Y0052952D01*
X0136800Y0054551D02*
X0136800Y0054551D01*
X0136800Y0056149D02*
X0136800Y0056149D01*
X0124683Y0048157D02*
X0161400Y0048157D01*
X0161400Y0046558D02*
X0124800Y0046558D01*
X0124483Y0044960D02*
X0161400Y0044960D01*
X0162602Y0043361D02*
X0123598Y0043361D01*
X0121530Y0041763D02*
X0164126Y0041763D01*
X0162528Y0040164D02*
X0123672Y0040164D01*
X0124514Y0038566D02*
X0161400Y0038566D01*
X0161400Y0036967D02*
X0124800Y0036967D01*
X0124652Y0035369D02*
X0161400Y0035369D01*
X0162193Y0033770D02*
X0123990Y0033770D01*
X0122337Y0032172D02*
X0149535Y0032172D01*
X0147936Y0030573D02*
X0123264Y0030573D01*
X0124344Y0028975D02*
X0146400Y0028975D01*
X0146400Y0027376D02*
X0124800Y0027376D01*
X0124800Y0025778D02*
X0146400Y0025778D01*
X0146784Y0024179D02*
X0124159Y0024179D01*
X0122817Y0022581D02*
X0148383Y0022581D01*
X0154065Y0032172D02*
X0163792Y0032172D01*
X0162119Y0049755D02*
X0124021Y0049755D01*
X0116800Y0052952D02*
X0116800Y0052952D01*
X0116800Y0054551D02*
X0116800Y0054551D01*
X0116800Y0056149D02*
X0116800Y0056149D01*
X0116800Y0057748D02*
X0116800Y0057748D01*
X0116800Y0059346D02*
X0116800Y0059346D01*
X0116800Y0060945D02*
X0116800Y0060945D01*
X0116800Y0076800D02*
X0099300Y0076800D01*
X0094300Y0081800D01*
X0071800Y0081800D01*
X0026800Y0126800D01*
X0026800Y0160800D01*
X0030400Y0167000D02*
X0036600Y0167000D01*
X0041800Y0161800D01*
X0041800Y0124300D01*
X0074300Y0091800D01*
X0070297Y0076930D02*
X0079800Y0076930D01*
X0080051Y0075332D02*
X0071895Y0075332D01*
X0092556Y0073733D02*
X0097297Y0073733D01*
X0095677Y0075332D02*
X0093549Y0075332D01*
X0093800Y0076930D02*
X0094079Y0076930D01*
X0101800Y0094300D02*
X0094300Y0101800D01*
X0101882Y0099309D02*
X0109394Y0099309D01*
X0106800Y0094300D02*
X0101800Y0094300D01*
X0116800Y0132878D02*
X0116800Y0132878D01*
X0116800Y0134476D02*
X0116800Y0134476D01*
X0116800Y0136075D02*
X0116800Y0136075D01*
X0116800Y0137673D02*
X0116800Y0137673D01*
X0116800Y0139272D02*
X0116800Y0139272D01*
X0116800Y0140870D02*
X0116800Y0140870D01*
X0121103Y0140870D02*
X0129648Y0140870D01*
X0128494Y0142469D02*
X0122706Y0142469D01*
X0124113Y0144068D02*
X0126896Y0144068D01*
X0126400Y0145666D02*
X0124775Y0145666D01*
X0124800Y0147265D02*
X0126400Y0147265D01*
X0126400Y0148863D02*
X0124390Y0148863D01*
X0124852Y0149761D02*
X0124852Y0149761D01*
X0125553Y0150462D02*
X0127825Y0150462D01*
X0127151Y0152060D02*
X0129423Y0152060D01*
X0128750Y0153659D02*
X0183200Y0153659D01*
X0183200Y0155257D02*
X0130348Y0155257D01*
X0131947Y0156856D02*
X0149108Y0156856D01*
X0149563Y0156400D02*
X0154037Y0156400D01*
X0157200Y0159563D01*
X0157200Y0164037D01*
X0154037Y0167200D01*
X0149563Y0167200D01*
X0146400Y0164037D01*
X0146400Y0159563D01*
X0149563Y0156400D01*
X0147509Y0158454D02*
X0133545Y0158454D01*
X0135144Y0160053D02*
X0146400Y0160053D01*
X0146400Y0161651D02*
X0136742Y0161651D01*
X0138341Y0163250D02*
X0146400Y0163250D01*
X0147211Y0164848D02*
X0139939Y0164848D01*
X0141538Y0166447D02*
X0148810Y0166447D01*
X0144735Y0169644D02*
X0167007Y0169644D01*
X0166400Y0169037D02*
X0169563Y0172200D01*
X0174037Y0172200D01*
X0177200Y0169037D01*
X0177200Y0164563D01*
X0174037Y0161400D01*
X0169563Y0161400D01*
X0166400Y0164563D01*
X0166400Y0169037D01*
X0166400Y0168045D02*
X0143136Y0168045D01*
X0146333Y0171242D02*
X0168605Y0171242D01*
X0166400Y0166447D02*
X0154790Y0166447D01*
X0156389Y0164848D02*
X0166400Y0164848D01*
X0167714Y0163250D02*
X0157200Y0163250D01*
X0157200Y0161651D02*
X0169312Y0161651D01*
X0174288Y0161651D02*
X0183200Y0161651D01*
X0183200Y0160053D02*
X0157200Y0160053D01*
X0156091Y0158454D02*
X0183200Y0158454D01*
X0183200Y0156856D02*
X0154492Y0156856D01*
X0147932Y0172841D02*
X0183200Y0172841D01*
X0183200Y0174439D02*
X0149530Y0174439D01*
X0151129Y0176038D02*
X0183200Y0176038D01*
X0183200Y0177636D02*
X0152727Y0177636D01*
X0154326Y0179235D02*
X0183200Y0179235D01*
X0183200Y0180833D02*
X0155296Y0180833D01*
X0156058Y0182432D02*
X0164139Y0182432D01*
X0164127Y0182438D02*
X0164842Y0182074D01*
X0165606Y0181826D01*
X0166399Y0181700D01*
X0166800Y0181700D01*
X0167201Y0181700D01*
X0167994Y0181826D01*
X0168758Y0182074D01*
X0169473Y0182438D01*
X0170122Y0182910D01*
X0170690Y0183478D01*
X0171162Y0184127D01*
X0171526Y0184842D01*
X0171774Y0185606D01*
X0171900Y0186399D01*
X0171900Y0186800D01*
X0171900Y0187201D01*
X0171774Y0187994D01*
X0171526Y0188758D01*
X0171162Y0189473D01*
X0170690Y0190122D01*
X0170122Y0190690D01*
X0169473Y0191162D01*
X0168758Y0191526D01*
X0167994Y0191774D01*
X0167201Y0191900D01*
X0166800Y0191900D01*
X0166800Y0186800D01*
X0171900Y0186800D01*
X0166800Y0186800D01*
X0166800Y0186800D01*
X0166800Y0186800D01*
X0166800Y0181700D01*
X0166800Y0186800D01*
X0166800Y0186800D01*
X0166800Y0186800D01*
X0161700Y0186800D01*
X0161700Y0187201D01*
X0161826Y0187994D01*
X0162074Y0188758D01*
X0162438Y0189473D01*
X0162910Y0190122D01*
X0163478Y0190690D01*
X0164127Y0191162D01*
X0164842Y0191526D01*
X0165606Y0191774D01*
X0166399Y0191900D01*
X0166800Y0191900D01*
X0166800Y0186800D01*
X0161700Y0186800D01*
X0161700Y0186399D01*
X0161826Y0185606D01*
X0162074Y0184842D01*
X0162438Y0184127D01*
X0162910Y0183478D01*
X0163478Y0182910D01*
X0164127Y0182438D01*
X0162508Y0184030D02*
X0157255Y0184030D01*
X0157900Y0185629D02*
X0161822Y0185629D01*
X0161704Y0187227D02*
X0157900Y0187227D01*
X0157563Y0188826D02*
X0162108Y0188826D01*
X0163212Y0190424D02*
X0156802Y0190424D01*
X0155131Y0192023D02*
X0183469Y0192023D01*
X0181798Y0190424D02*
X0170388Y0190424D01*
X0171492Y0188826D02*
X0181037Y0188826D01*
X0180700Y0187227D02*
X0171896Y0187227D01*
X0171778Y0185629D02*
X0180700Y0185629D01*
X0181345Y0184030D02*
X0171092Y0184030D01*
X0169461Y0182432D02*
X0182542Y0182432D01*
X0186800Y0186800D02*
X0186800Y0144300D01*
X0179300Y0136800D01*
X0156800Y0136800D01*
X0151800Y0131800D01*
X0137200Y0145666D02*
X0183075Y0145666D01*
X0183200Y0147265D02*
X0137200Y0147265D01*
X0137200Y0148863D02*
X0183200Y0148863D01*
X0183200Y0150462D02*
X0135775Y0150462D01*
X0134177Y0152060D02*
X0183200Y0152060D01*
X0181476Y0144068D02*
X0136704Y0144068D01*
X0128049Y0139272D02*
X0123043Y0139272D01*
X0123716Y0137673D02*
X0127400Y0137673D01*
X0127400Y0136075D02*
X0123740Y0136075D01*
X0123151Y0134476D02*
X0127901Y0134476D01*
X0121800Y0151800D02*
X0151800Y0181800D01*
X0151800Y0186800D01*
X0147341Y0182432D02*
X0134461Y0182432D01*
X0136092Y0184030D02*
X0146345Y0184030D01*
X0145700Y0185629D02*
X0136778Y0185629D01*
X0136896Y0187227D02*
X0145700Y0187227D01*
X0146037Y0188826D02*
X0136492Y0188826D01*
X0135388Y0190424D02*
X0146798Y0190424D01*
X0148469Y0192023D02*
X0079214Y0192023D01*
X0080812Y0190424D02*
X0084202Y0190424D01*
X0082603Y0188826D02*
X0082200Y0188826D01*
X0082200Y0187227D02*
X0082400Y0187227D01*
X0082400Y0185629D02*
X0082200Y0185629D01*
X0081667Y0184030D02*
X0083347Y0184030D01*
X0084946Y0182432D02*
X0080069Y0182432D01*
X0056747Y0187227D02*
X0047637Y0187227D01*
X0048687Y0185629D02*
X0054426Y0185629D01*
X0053446Y0184030D02*
X0049349Y0184030D01*
X0049580Y0182432D02*
X0053000Y0182432D01*
X0053000Y0180833D02*
X0049580Y0180833D01*
X0049211Y0179235D02*
X0053585Y0179235D01*
X0054761Y0177636D02*
X0048549Y0177636D01*
X0047302Y0176038D02*
X0054835Y0176038D01*
X0053615Y0174439D02*
X0045377Y0174439D01*
X0039047Y0169644D02*
X0053415Y0169644D01*
X0054352Y0168045D02*
X0040646Y0168045D01*
X0053881Y0160053D02*
X0054321Y0160053D01*
X0027041Y0171242D02*
X0026859Y0171242D01*
X0004600Y0195220D02*
X0195850Y0195220D01*
X0183200Y0171242D02*
X0174995Y0171242D01*
X0176593Y0169644D02*
X0182007Y0169644D01*
X0181400Y0168045D02*
X0177200Y0168045D01*
X0177200Y0166447D02*
X0181400Y0166447D01*
X0181400Y0164848D02*
X0177200Y0164848D01*
X0175886Y0163250D02*
X0182714Y0163250D01*
X0166800Y0182432D02*
X0166800Y0182432D01*
X0166800Y0184030D02*
X0166800Y0184030D01*
X0166800Y0185629D02*
X0166800Y0185629D01*
X0166800Y0187227D02*
X0166800Y0187227D01*
X0166800Y0188826D02*
X0166800Y0188826D01*
X0166800Y0190424D02*
X0166800Y0190424D01*
X0145742Y0180833D02*
X0115403Y0180833D01*
X0117002Y0179235D02*
X0144144Y0179235D01*
X0142545Y0177636D02*
X0117200Y0177636D01*
X0117200Y0176038D02*
X0140947Y0176038D01*
X0139348Y0174439D02*
X0117076Y0174439D01*
X0115477Y0172841D02*
X0137750Y0172841D01*
X0131800Y0182432D02*
X0131800Y0182432D01*
X0131800Y0184030D02*
X0131800Y0184030D01*
X0131800Y0185629D02*
X0131800Y0185629D01*
X0131800Y0187227D02*
X0131800Y0187227D01*
X0131800Y0188826D02*
X0131800Y0188826D01*
X0131800Y0190424D02*
X0131800Y0190424D01*
X0025185Y0083324D02*
X0013204Y0083324D01*
X0013300Y0081726D02*
X0026783Y0081726D01*
X0028200Y0080127D02*
X0013143Y0080127D01*
X0012480Y0078529D02*
X0028200Y0078529D01*
X0028200Y0076930D02*
X0011122Y0076930D01*
X0012373Y0075332D02*
X0028200Y0075332D01*
X0028200Y0073733D02*
X0013035Y0073733D01*
X0013300Y0072134D02*
X0028200Y0072134D01*
X0028200Y0070536D02*
X0013300Y0070536D01*
X0012650Y0068937D02*
X0028200Y0068937D01*
X0028200Y0067339D02*
X0011531Y0067339D01*
X0012052Y0065740D02*
X0028200Y0065740D01*
X0028200Y0064142D02*
X0012865Y0064142D01*
X0013300Y0062543D02*
X0028200Y0062543D01*
X0028200Y0060945D02*
X0013300Y0060945D01*
X0012819Y0059346D02*
X0028200Y0059346D01*
X0028200Y0057748D02*
X0011940Y0057748D01*
X0010144Y0056149D02*
X0028200Y0056149D01*
X0028200Y0054551D02*
X0004600Y0054551D01*
X0004600Y0052952D02*
X0028200Y0052952D01*
X0028200Y0051354D02*
X0004600Y0051354D01*
X0004600Y0049755D02*
X0028200Y0049755D01*
X0028200Y0048157D02*
X0011403Y0048157D01*
X0013092Y0046558D02*
X0028200Y0046558D01*
X0028200Y0044960D02*
X0013300Y0044960D01*
X0013300Y0043361D02*
X0028200Y0043361D01*
X0028200Y0041763D02*
X0013300Y0041763D01*
X0013300Y0040164D02*
X0028200Y0040164D01*
X0028200Y0038566D02*
X0013300Y0038566D01*
X0013061Y0036967D02*
X0028200Y0036967D01*
X0028200Y0035369D02*
X0012357Y0035369D01*
X0013019Y0033770D02*
X0028200Y0033770D01*
X0028200Y0032172D02*
X0013300Y0032172D01*
X0013300Y0030573D02*
X0028200Y0030573D01*
X0028200Y0028975D02*
X0012665Y0028975D01*
X0011569Y0027376D02*
X0028200Y0027376D01*
X0028200Y0025778D02*
X0010600Y0025778D01*
X0011761Y0024179D02*
X0028200Y0024179D01*
X0028200Y0022581D02*
X0012245Y0022581D01*
X0012239Y0020982D02*
X0028200Y0020982D01*
X0028200Y0019384D02*
X0011742Y0019384D01*
X0010563Y0017785D02*
X0028200Y0017785D01*
X0026994Y0016187D02*
X0011606Y0016187D01*
X0012681Y0014588D02*
X0025919Y0014588D01*
X0025300Y0012990D02*
X0013300Y0012990D01*
X0013300Y0011391D02*
X0025300Y0011391D01*
X0025596Y0009793D02*
X0013899Y0009793D01*
X0015497Y0008194D02*
X0026258Y0008194D01*
X0031800Y0011800D02*
X0031800Y0081800D01*
X0021800Y0091800D01*
X0017704Y0089718D02*
X0013300Y0089718D01*
X0013300Y0088120D02*
X0019002Y0088120D01*
X0021988Y0086521D02*
X0012877Y0086521D01*
X0012542Y0084923D02*
X0023586Y0084923D01*
X0017219Y0091317D02*
X0013300Y0091317D01*
X0013300Y0092915D02*
X0017303Y0092915D01*
X0018035Y0094514D02*
X0013300Y0094514D01*
X0045400Y0043361D02*
X0080002Y0043361D01*
X0082070Y0041763D02*
X0045400Y0041763D01*
X0045400Y0040164D02*
X0079928Y0040164D01*
X0079086Y0038566D02*
X0045400Y0038566D01*
X0045400Y0036967D02*
X0078800Y0036967D01*
X0078948Y0035369D02*
X0045400Y0035369D01*
X0045400Y0033770D02*
X0079610Y0033770D01*
X0081263Y0032172D02*
X0074065Y0032172D01*
X0075664Y0030573D02*
X0080336Y0030573D01*
X0079256Y0028975D02*
X0077200Y0028975D01*
X0077200Y0027376D02*
X0078800Y0027376D01*
X0078800Y0025778D02*
X0077200Y0025778D01*
X0076816Y0024179D02*
X0079441Y0024179D01*
X0080783Y0022581D02*
X0075217Y0022581D01*
X0071800Y0026800D02*
X0061800Y0016800D01*
X0061800Y0011800D01*
X0054300Y0004300D01*
X0014300Y0004300D01*
X0006800Y0011800D01*
X0045400Y0017785D02*
X0058311Y0017785D01*
X0059292Y0019384D02*
X0045400Y0019384D01*
X0045400Y0020982D02*
X0060891Y0020982D01*
X0061800Y0022400D02*
X0059977Y0022400D01*
X0057400Y0024977D01*
X0057400Y0026800D01*
X0061800Y0026800D01*
X0061800Y0026800D01*
X0061800Y0026800D01*
X0061800Y0031200D01*
X0059977Y0031200D01*
X0057400Y0028623D01*
X0057400Y0026800D01*
X0061800Y0026800D01*
X0061800Y0022400D01*
X0061800Y0022581D02*
X0061800Y0022581D01*
X0061800Y0024179D02*
X0061800Y0024179D01*
X0061800Y0025778D02*
X0061800Y0025778D01*
X0061800Y0027376D02*
X0061800Y0027376D01*
X0061800Y0028975D02*
X0061800Y0028975D01*
X0061800Y0030573D02*
X0061800Y0030573D01*
X0064249Y0030573D02*
X0067936Y0030573D01*
X0066400Y0028975D02*
X0065848Y0028975D01*
X0066200Y0027376D02*
X0066400Y0027376D01*
X0069535Y0032172D02*
X0045400Y0032172D01*
X0045400Y0030573D02*
X0059351Y0030573D01*
X0057752Y0028975D02*
X0045400Y0028975D01*
X0045400Y0027376D02*
X0057400Y0027376D01*
X0057400Y0025778D02*
X0045400Y0025778D01*
X0045400Y0024179D02*
X0058198Y0024179D01*
X0059797Y0022581D02*
X0045400Y0022581D01*
X0046606Y0016187D02*
X0048480Y0016187D01*
X0051600Y0016187D02*
X0052000Y0016187D01*
X0052000Y0014588D02*
X0051600Y0014588D01*
X0051600Y0012990D02*
X0052000Y0012990D01*
X0055120Y0016187D02*
X0056994Y0016187D01*
X0060088Y0004997D02*
X0195850Y0004997D01*
X0195850Y0006596D02*
X0195788Y0006596D01*
X0187812Y0006596D02*
X0077908Y0006596D01*
X0078300Y0008194D02*
X0186258Y0008194D01*
X0185596Y0009793D02*
X0078300Y0009793D01*
D22*
X0021800Y0091800D03*
X0026800Y0111800D03*
X0049300Y0160800D03*
X0101800Y0106800D03*
X0106800Y0094300D03*
X0151800Y0106800D03*
M02*
